<?xml version="1.0" standalone="no"?>
<!DOCTYPE svg PUBLIC "-//W3C//DTD SVG 20010904//EN"
 "http://www.w3.org/TR/2001/REC-SVG-20010904/DTD/svg10.dtd">
<svg version="1.0" xmlns="http://www.w3.org/2000/svg"
 width="500pt" height="500pt" viewBox="0 0 500 500"
 preserveAspectRatio="xMidYMid meet">
 <metadata>
Created by potrace 1.10, written by Peter Selinger 2001-2011
</metadata>
 <path fill="#fff" stroke="#fff" stroke-width="1px" d="M269.7 34.159c-7.257 2.031-8.665 9.265-3.197 16.434 5.978 7.837 6.563 12.126 3.372 24.724-4.906 19.378 6.057 22.344 52.125 14.1 1.375-.246.7.236-1.5 1.07-2.2.834-4.9 1.947-6 2.473-3.049 1.458-10.241 3.142-15.118 3.539-11.697.953-23.111 6.304-25.875 12.128-5.06 10.662 5.607 31.606 21.504 42.221 12.658 8.453 19.287 4.228 30.838-19.658l3.833-7.927 1.18 7.589c1.984 12.763 4.701 10.995 5.923-3.852.678-8.229 1.869-6.202 2.097 3.568.221 9.502 6.542 24.866 14.212 34.55l2.994 3.782-3.62 8.8c-20.09 48.83-61.657 99.654-89.854 109.864-3.488 1.263-5.423 2.436-4.727 2.866 4.127 2.551 23.559-10.697 40.118-27.349 24.243-24.378 42.158-51.455 55.914-84.508l4.042-9.711-3.847-5.181c-7.568-10.192-11.518-18.646-13.032-27.894-.424-2.592-.391-4.478.073-4.191.465.287.845.979.845 1.539 0 2.077 8.449 15.478 11.736 18.615 14.417 13.755 50.392-26.884 39.358-44.46-2.982-4.749-20.737-12.113-26.849-11.135-2.874.46-12.215-2.29-20.245-5.959l-2.5-1.143 2.5.452c46.685 8.442 56.398 5.307 50.959-16.451-2.687-10.751-2.283-13.601 3.043-21.439 4.503-6.628 5.125-11.002 2.096-14.742-3.092-3.819-16.183-4.045-23.616-.408-9.141 4.472-28.53 25.651-28.972 31.646-.075 1.025-1.059 2.881-2.187 4.126-1.127 1.245-2.449 2.985-2.936 3.867-2.402 4.344-9.102 10.856-8.63 8.387.326-1.706-.057-2.669-1.244-3.124-2.185-.839-3.577 1.338-2.956 4.625.292 1.546.18 1.933-.292 1.008-1.83-3.587-4.545-6.945-5.258-6.504-.426.263-1.313-.821-1.971-2.41-.658-1.589-2.272-3.898-3.586-5.133-1.313-1.234-2.157-2.618-1.874-3.076.92-1.488-9.739-16.194-16.999-23.454-10.822-10.821-21.857-15.067-31.877-12.264m46.114 2.869c5.375 3.277 11.567 19.423 14.66 38.222.339 2.063.977 3.75 1.417 3.75 1.54 0-3.253-21.546-7.051-31.698-2.449-6.545-7.222-12.303-10.194-12.298-1.811.003-1.629.318 1.168 2.024m31.983.722c-4.807 5.13-8.757 15.762-11.795 31.75-.627 3.3-1.364 6.787-1.638 7.75-.274.963-.089 1.75.412 1.75s1.661-3.816 2.577-8.479c3.715-18.905 8.432-30.199 14.042-33.62 2.587-1.578 2.761-1.894 1.042-1.897-1.135-.002-3.223 1.233-4.64 2.746m-197.45 8.235c-12.586 3.3-20.701 8.351-25.452 15.842-5.859 9.238-4.403 9.822 8.355 3.349 27.963-14.186 57.062-13.634 73.701 1.398 6.773 6.12 9.431 11.592 9.495 19.548.057 7.187-1.65 11.086-2.947 6.729-2.235-7.513-9.997-14.313-20.3-17.784-11.032-3.717-21.538-2.514-38.79 4.442-4.689 1.89-11.312 3.94-14.717 4.556-13.158 2.379-12.761 1.935-5.556 6.217 13.197 7.843 21.44 8.99 55.864 7.774 12.13-.429 15.339.346 19.227 4.642 1.677 1.853 1.467 1.936-7.867 3.115-5.275.666-10.084 1.517-10.688 1.89-.604.373-2.671.84-4.592 1.037-1.922.197-3.963.703-4.537 1.123-1.014.744-7.303.657-18.543-.256-3.025-.245-6.314-.482-7.309-.527-.995-.044-1.531-.53-1.191-1.08.34-.55-.294-1-1.41-1-1.391 0-1.847-.471-1.452-1.5.45-1.172-.269-1.505-3.281-1.522-5.398-.031-11.157-2.911-17.74-8.872-8.127-7.36-9.664-6.489-8.84 5.016.616 8.609-.958 9.093-5.277 1.622-5.119-8.856-13.714-12.483-18.095-7.637-1.623 1.796-1.904 3.682-1.897 12.75.02 27.274 17.141 60.51 29.226 56.736 1.456-.454 2.371 1.069 5.21 8.678 9.814 26.296 30.986 62.832 45.682 78.834 25.114 27.346 46.515 41.126 63.281 40.745 3.626-.082 5.243-.31 3.593-.506-19.482-2.313-34.323-10.675-56.101-31.611-21.072-20.259-40.851-52.133-54.983-88.61l-3.916-10.108-3.129.581c-10.297 1.912-20.815-16.052-26.816-45.804-1.922-9.528-1.95-12.912-.14-17.244 3.53-8.447 10.361-6.09 17.977 6.202 4.979 8.036 8.484 4.713 7.181-6.807-.814-7.195-.8-7.197 6.253-.911 3.475 3.098 7.88 5.847 11.459 7.152l5.813 2.12-3.049 3.145c-3.623 3.738-4.301 7.027-.799 3.874 3.983-3.586 4.704-3.662 3.461-.368-1.516 4.015-.215 4.955 2.348 1.698 2.765-3.516 3.677-3.346 3.21.597l-.385 3.25 2.141-2.75c2.794-3.587 4.073-3.491 3.325.25-.729 3.647.811 3.937 2.65.5 1.818-3.397 3.304-3.159 2.521.405-.954 4.343.89 4.528 3.006.302l1.857-3.707.621 3.5.622 3.5 1.368-2.796 1.368-2.795 1.196 2.795 1.196 2.796 1.28-3c1.108-2.598 1.339-2.732 1.719-1 .651 2.96 2.092 4.111 2.713 2.167l1.061-3.32c.478-1.502.649-1.488 1.848.153 1.218 1.666 1.419 1.541 2.574-1.597.804-2.186 1.423-2.866 1.73-1.903 1.416 4.441 1.491 4.481 2.82 1.5.813-1.823 1.369-2.336 1.419-1.309.15 3.137 2.028 2.923 3.478-.395 1.273-2.915 1.449-3.024 1.521-.942.082 2.352.084 2.351 3.508-.655 4.431-3.89 8.855-4.9 12.115-2.764 3.099 2.031 3.208.512.299-4.194-4.175-6.756-7.981-7.555-32.224-6.768-23.845.775-29.927-.068-40.999-5.678l-6.117-3.1 6-1.253c3.3-.689 9.15-2.455 13-3.925 3.85-1.47 10.375-3.802 14.5-5.183 19.917-6.669 42.054 1.623 46.254 17.326 1.389 5.194 2.15 5.382 4.393 1.09 2.72-5.203 2.284-14.327-1.007-21.053-11.79-24.099-54.779-28.782-87.14-9.493-4.143 2.47-4.789 2.255-3.09-1.029 3.748-7.249 14.307-13.759 27.272-16.816 3.973-.936 6.993-2.075 6.712-2.531-.652-1.055-.565-1.066-9.047 1.157M192 45.382c0 .21 3.713 1.542 8.25 2.959 26.265 8.205 31.211 18.679 31.236 66.159.016 29.291-.699 33.036-9.069 47.5-5.008 8.654-5.447 16.097-1.142 19.339 2.718 2.046 2.845 2.051 6.15.271 3.359-1.809 3.394-1.805 7.207.786 4.801 3.263 8.079 3.289 12.773.104 4.109-2.789 5.636-3.059 7.388-1.307.923.923.14 1.769-3.469 3.75-7.219 3.961-8.824 6.813-8.824 15.682 0 6.196-.257 7.394-1.5 6.993-.825-.267-3.426-1.193-5.78-2.057-5.441-1.998-8.571-.572-19.891 9.062-4.306 3.665-9.516 7.784-11.579 9.153-4.792 3.182-4.806 3.119 2 9.211 20.465 18.32 41.308 23.202 57.799 13.537C273.941 240.434 289.105 223 284.01 223c-.482 0-4.743-3.372-9.47-7.494-12.966-11.305-17.642-13.162-25.194-10.006-5.471 2.286-5.608 2.14-5.177-5.477.476-8.435 3.944-12.955 11.577-15.092l4.553-1.275-3.165-2.828c-3.958-3.536-4.964-3.526-10.697.11-5.005 3.174-6.021 3.11-12.43-.787-3.095-1.883-3.555-1.919-6.311-.494-3.751 1.94-7.639.503-7.811-2.886-.227-4.466.371-6.287 5.2-15.844 7.916-15.665 8.43-18.566 8.317-46.927-.163-40.924-2.872-50.002-17.959-60.187C207.701 48.586 192 42.94 192 45.382M302.5 55c.995 1.1 2.035 2 2.31 2 .275 0-.315-.9-1.31-2-.995-1.1-2.035-2-2.31-2-.275 0 .315.9 1.31 2m8.5 7.5c1.866 1.925 3.617 3.5 3.892 3.5.275 0-1.026-1.575-2.892-3.5-1.866-1.925-3.617-3.5-3.892-3.5-.275 0 1.026 1.575 2.892 3.5m73.158 4.5c0 1.375.227 1.938.504 1.25.278-.687.278-1.812 0-2.5-.277-.687-.504-.125-.504 1.25M305 67.378c0 .207.788.995 1.75 1.75 1.586 1.243 1.621 1.208.378-.378-1.307-1.666-2.128-2.195-2.128-1.372m5 4c0 .207.788.995 1.75 1.75 1.586 1.243 1.621 1.208.378-.378-1.307-1.666-2.128-2.195-2.128-1.372m-14.25 7.284c.688.278 1.813.278 2.5 0 .688-.277.125-.504-1.25-.504s-1.937.227-1.25.504m74.063.021c.721.289 1.584.253 1.916-.079.332-.332-.258-.568-1.312-.525-1.165.048-1.402.285-.604.604m19.266 3.9c.048 1.165.285 1.402.604.605.289-.722.253-1.585-.079-1.917-.332-.332-.568.258-.525 1.312m-65.266 4.1c.721.289 1.584.253 1.916-.079.332-.332-.258-.568-1.312-.525-1.165.048-1.402.285-.604.604m18 0c.721.289 1.584.253 1.916-.079.332-.332-.258-.568-1.312-.525-1.165.048-1.402.285-.604.604m-23 1c.721.289 1.584.253 1.916-.079.332-.332-.258-.568-1.312-.525-1.165.048-1.402.285-.604.604m28 0c.721.289 1.584.253 1.916-.079.332-.332-.258-.568-1.312-.525-1.165.048-1.402.285-.604.604m-33 1c.721.289 1.584.253 1.916-.079.332-.332-.258-.568-1.312-.525-1.165.048-1.402.285-.604.604m-6 1c.721.289 1.584.253 1.916-.079.332-.332-.258-.568-1.312-.525-1.165.048-1.402.285-.604.604m50 0c.721.289 1.584.253 1.916-.079.332-.332-.258-.568-1.312-.525-1.165.048-1.402.285-.604.604m-64.549 1.035c1.52.229 3.77.223 5-.014 1.23-.237-.014-.425-2.764-.418-2.75.008-3.756.202-2.236.432m76.486-.012c1.238.238 3.262.238 4.5 0 1.238-.239.225-.434-2.25-.434s-3.488.195-2.25.434m-39.671 1.877c.048 1.165.285 1.402.604.605.289-.722.253-1.585-.079-1.917-.332-.332-.568.258-.525 1.312m-13.329 1.123c1.238.238 3.262.238 4.5 0 1.238-.239.225-.434-2.25-.434s-3.488.195-2.25.434m30.012.001c1.244.239 3.044.23 4-.02s-.062-.446-2.262-.435c-2.2.011-2.982.216-1.738.455m-21.683 4.876c.048 1.165.285 1.402.604.605.289-.722.253-1.585-.079-1.917-.332-.332-.568.258-.525 1.312m12.116.917c.02 1.65.244 2.204.498 1.231.254-.973.237-2.323-.037-3-.274-.677-.481.119-.461 1.769m4.077 3.5c0 2.475.195 3.487.434 2.25.238-1.237.238-3.263 0-4.5-.239-1.237-.434-.225-.434 2.25m-12.193-1.417c.048 1.165.285 1.402.604.605.289-.722.253-1.585-.079-1.917-.332-.332-.568.258-.525 1.312m-4 6c.048 1.165.285 1.402.604.605.289-.722.253-1.585-.079-1.917-.332-.332-.568.258-.525 1.312m-27.155 5.167-2.424 2.75 2.75-2.424c1.512-1.334 2.75-2.571 2.75-2.75 0-.785-.81-.146-3.076 2.424m31.362 4.75c.008 2.75.202 3.756.432 2.236.229-1.52.223-3.77-.014-5-.237-1.23-.425.014-.418 2.764m32.527 27.183c.721.289 1.584.253 1.916-.079.332-.332-.258-.568-1.312-.525-1.165.048-1.402.285-.604.604m-80.306 81.306c-.35.566.051.734.941.393 1.732-.665 2.049-1.382.611-1.382-.518 0-1.216.445-1.552.989m-30.238 65.704c.973.254 2.323.237 3-.037.677-.274-.119-.481-1.769-.461-1.65.02-2.204.244-1.231.498m66.276 9.235c-4.024.785-4.328 2.385-4.445 23.401l-.1 17.83-3-.659c-2.553-.561-3-.361-3 1.341 0 1.395.88 2.193 2.908 2.639l2.908.638.645 10.691c.723 11.978 1.767 15.701 4.144 14.789.857-.329 2.401-.598 3.431-.598 1.611 0 1.914-.922 2.168-6.592l.296-6.591 3.232 4.595c8.117 11.541 17.398 11.233 23.237-.772 3.859-7.933 5.105-14.999 2.556-14.491-1.159.231-2.621 2.749-4.268 7.351-5.797 16.201-7.979 16.193-17.976-.072l-4.962-8.072 4.949-1.758c13.583-4.824 22.232-21.286 17.338-32.999-3.758-8.994-16.828-8.803-22.22.324-2.547 4.312-2.858 3.952-3.101-3.591-.245-7.578-.645-8.203-4.74-7.404m-72.929 3.365c-3.381 3.381-5.467 9.919-6.904 21.635-1.257 10.246-1.331 10.444-4.246 11.384-4.094 1.32-5.777 2.777-4.584 3.97.622.622 2.032.595 3.957-.076 3.749-1.307 4.161-.874 4.161 4.373 0 23.515 11.305 35.321 25.316 26.436 5.21-3.304 13.684-11.367 13.684-13.02 0-2.8-3.399-2.123-6.371 1.269C265.452 365.031 257.302 371 254.97 371c-2.616 0-3.875-5.084-4.643-18.75l-.633-11.25 6.903-.118c15.671-.269 18.751-3.656 3.724-4.095l-9.821-.287-.284-10.184c-.157-5.601.085-12.351.537-15 .917-5.384.312-5.189 11.632-3.754 7.947 1.007 7.327-1.394-.964-3.732-8.755-2.469-14.017-2.325-16.805.463m-62.052 4.957c-.734 1.788-1.873 6.625-2.531 10.75-2.082 13.054-1.485 12.002-6.802 11.986-9.352-.027-9.231.12-9.231-11.168 0-11.439-.849-13.818-4.928-13.818-3.611 0-3.861.717-4.682 13.418l-.674 10.419-4.369 1.668c-4.719 1.802-7.278 4.964-5.477 6.765.739.739 2.202.259 4.896-1.608 5.391-3.736 5.313-3.883 4.598 8.634-.901 15.766.032 22.514 3.221 23.315 4.324 1.085 5.129-.764 5.825-13.385.355-6.449.901-13.863 1.212-16.476l.566-4.75h13.59l.417 14.25c.443 15.121 2.301 22.174 6.947 26.379 2.61 2.361 8.207 2.27 10.916-.179 4.269-3.858 12.865-23.927 11.033-25.759-1.732-1.732-3.622.864-7.577 10.405-8.457 20.405-13.562 16.703-13.578-9.845-.008-13.679.618-15.712 5.114-16.611 3.802-.76 3.445-3.271-.405-2.852-3.297.359-3.35-.77-.645-13.788 1.086-5.225 1.98-9.837 1.987-10.25.007-.413-1.81-.75-4.038-.75-3.63 0-4.19.338-5.385 3.25m150.115 1.788c-4.903 3.856-9.135 14.374-9.532 23.688-.194 4.551-.067 8.274.283 8.274 1.732 0 8.32-3.355 10.404-5.298 6.467-6.033 9.258-21.619 4.761-26.594-2.35-2.601-2.694-2.605-5.916-.07m-118.272 51.344c-.858 2.236.373 3.618 3.222 3.618 2.031 0 2.449-.429 2.191-2.25-.381-2.681-4.509-3.724-5.413-1.368m70.956.115c-.346.901-.167 2.099.398 2.664 1.63 1.63 4.739.531 4.739-1.675 0-2.543-4.228-3.358-5.137-.989m76.044-.115c-.858 2.236.373 3.618 3.222 3.618 2.031 0 2.449-.429 2.191-2.25-.381-2.681-4.509-3.724-5.413-1.368m-92.891 43.567c-.34 1.072-1.495 2.227-2.567 2.567-2.295.729-2.612 2.484-.449 2.484 1.216 0 1.5 1.615 1.5 8.532 0 10.918 1.778 15.745 5.629 15.287 3.254-.388 6.04-4.033 6.93-9.069.977-5.521-.984-4.645-3.184 1.422-3.278 9.043-4.479 7.504-4.159-5.327l.284-11.345 5.25-.302c6.622-.382 6.925-2.198.367-2.198-4.043 0-4.974-.344-5.407-2-.669-2.56-3.387-2.593-4.194-.051M203 411.5c0 .825.675 1.5 1.5 1.5s1.5-.675 1.5-1.5-.675-1.5-1.5-1.5-1.5.675-1.5 1.5m35.218-.346c.519 1.558 2.756 1.83 2.835.346.029-.55-.698-1.155-1.615-1.346-1.043-.215-1.5.159-1.22 1m65.325-.223c-.317.512-.118 1.213.441 1.559 1.193.737 3.016-.199 3.016-1.549 0-1.217-2.707-1.225-3.457-.01m-52.114 2.797c-.34 1.525-1.476 5.951-2.524 9.836-1.048 3.885-1.905 7.597-1.905 8.25 0 2.209 1.828 1.202 2.838-1.564.814-2.23 1.019-2.363 1.083-.7.283 7.36 10.079 5.048 10.079-2.379 0-2.027.497-3.171 1.378-3.171.757 0 1.937-.675 2.622-1.5 1.479-1.782-.065-2.071-2.916-.545-1.508.807-2.148.177-4.14-4.075-3.002-6.409-5.635-8.087-6.515-4.152m83.062-1.713c-.599.968-5.491 19.245-5.491 20.513 0 1.476 1.976.124 2.574-1.762l.709-2.233.815 2.204c1.903 5.144 9.902 3.542 9.902-1.985 0-2.253.799-3.831 2.75-5.428 2.728-2.234 1.399-3.337-1.676-1.391-1.088.689-1.937-.201-3.591-3.765-2.487-5.362-4.93-7.871-5.992-6.153m-163.021 2.247c-1.194 4.757-.065 17.199 1.589 17.514 1.184.226 1.87-1.262 2.847-6.181 2.378-11.963 4.866-12.7 5.787-1.713.646 7.698 2.601 9.697 3.708 3.792 1.151-6.133 3.186-7.66 3.938-2.956.705 4.412 2.8 6.826 5.143 5.927 1.687-.647 5.508-6.465 5.514-8.395.008-2.52-1.74-1.145-3.496 2.75-2.36 5.233-2.948 5.052-4.068-1.25-1.001-5.64-4.604-8.071-6.117-4.129-.541 1.41-.903 1.088-1.812-1.613-1.476-4.383-3.822-5.914-6.5-4.242-1.672 1.044-2.003 1.001-2.003-.258 0-2.45-3.888-1.803-4.53.754m111.128-.127c-1.212 5.758-1.721 17.865-.751 17.865 1.149 0 1.796-1.805 2.6-7.25 1.42-9.623 1.716-10.767 2.638-10.197.599.37.727 3.439.328 7.843-1.462 16.132 7.161 18.55 12.566 3.524l1.949-5.42.036 3.816c.084 8.9 5.752 10.841 9.16 3.137 2.883-6.518 1.752-7.802-1.699-1.929L306.5 430.5l-.29-8.25c-.306-8.68-2.328-11.542-3.71-5.25-.362 1.65-1.219 3-1.904 3-.684 0-2.336 2.782-3.67 6.183-3.928 10.01-5.365 9.043-4.532-3.049.659-9.57.591-10.134-1.223-10.134-1.057 0-3.306-.277-4.998-.615-2.662-.533-3.144-.297-3.575 1.75m34.588.356c-2.932 3.728-3.581 8.875-1.635 12.975 2.905 6.122 7.62 5.897 11.897-.567 3.883-5.867 2.621-6.91-1.812-1.5-2.084 2.544-4.205 4.368-4.713 4.054-1.549-.958-1.079-7.179.592-7.82 2.263-.869 3.696-5.37 2.45-7.698-1.428-2.669-4.437-2.422-6.779.556m-102.519-.824c-.367.366-.667 2.439-.667 4.607 0 3.088-.324 3.816-1.497 3.365-1.045-.4-2.215.837-3.87 4.093-2.88 5.668-4.029 3.832-3.471-5.547.364-6.123-1.85-8.281-3.267-3.185-3.391 12.192 3.686 20.651 8.605 10.286 1.1-2.317 2.364-4.23 2.809-4.25.445-.02.548.387.228.903-.319.517-.288 2.767.069 5 .881 5.505 3.87 5.696 4.862.311.921-5.007 4.159-12.25 5.476-12.25.647 0 1.056 2.883 1.056 7.441 0 7.854.675 9.108 4.395 8.175 2.57-.645 6.044-7.246 5.391-10.244-.287-1.32-1.09-.323-2.72 3.378-3.159 7.173-3.937 6.627-4.276-3-.278-7.915-.39-8.264-2.756-8.598-1.764-.249-3.115.463-4.745 2.5l-2.279 2.848-.005-3.25c-.005-3.056-1.617-4.304-3.338-2.583m22.84 2.31c-3.852 12.138 3.219 21.941 8.294 11.496 3.469-7.142 1.7-8.207-2.031-1.223l-2.27 4.25-.5-7.921c-.494-7.833-2.124-10.914-3.493-6.602M320 418c0 1.1.173 2 .383 2 .211 0 .619-.9.907-2 .287-1.1.115-2-.384-2-.498 0-.906.9-.906 2m-67.797 4.1c-1.307 5.149-1.13 5.511 1.551 3.175 1.799-1.568 1.892-2.11.793-4.643l-1.244-2.868-1.1 4.336m82.077.517c-1.332 5.824-1.391 5.706 1.632 3.256 2.281-1.85 2.333-2.123.948-5.046l-1.463-3.089-1.117 4.879m-79.9 5.835c-.689 1.797.428 3.785 1.689 3.005 1.267-.783 1.184-4.457-.1-4.457-.568 0-1.283.653-1.589 1.452m82 0c-.689 1.797.428 3.785 1.689 3.005 1.267-.783 1.184-4.457-.1-4.457-.568 0-1.283.653-1.589 1.452M22.959 455.417c-.022.046-.134 4.246-.25 9.333l-.209 9.251 2.577-.001c2.294 0 2.528-.329 2.136-3-.43-2.93-.341-3 3.787-3s4.217.07 3.787 3c-.392 2.671-.158 3 2.136 3l2.577.001-.169-9.251c-.163-8.95-.243-9.25-2.48-9.25-2.101 0-2.284.387-2.005 4.25l.307 4.25h-8.306l.301-4.169c.267-3.694.047-4.188-1.923-4.333-1.224-.09-2.243-.126-2.266-.081m20-.051c-.022.073-.134 4.265-.25 9.314l-.209 9.18 7.201.32c6.5.289 7.254.125 7.737-1.68.951-3.558.605-3.889-1.752-1.674C51.621 474.644 48 473.783 48 469c0-4.438.296-4.616 4.25-2.553 2.721 1.419 2.75 1.401 2.75-1.706 0-2.443-.267-2.874-1.2-1.941-2.683 2.683-5.8 1.447-5.8-2.3 0-4.027 3.706-4.981 7.171-1.845 1.716 1.553 1.829 1.526 1.829-.433 0-1.148-.788-2.294-1.75-2.547-1.527-.401-12.182-.669-12.291-.309m25.488.4c-.579.404-2.084 3.209-3.344 6.234-1.261 3.025-3.135 6.962-4.164 8.75-1.819 3.16-1.82 3.25-.016 3.25 1.153 0 1.802-.662 1.716-1.75-.114-1.433.835-1.806 5.242-2.057 5.006-.285 5.344-.163 4.844 1.75-.462 1.768-.076 2.057 2.751 2.057h3.289l-3.805-9.224c-3.837-9.301-4.593-10.348-6.513-9.01m15.053.147c-1.801.529-2 1.449-2 9.266v8.68l6.701.32c6.001.287 6.757.112 7.237-1.679.929-3.472.63-3.699-2.073-1.573-5.856 4.607-7.514 3.138-7.284-6.451.227-9.437.241-9.391-2.581-8.563m19-.009-5 .596v17.503l7.25-.001c3.987-.001 7.25-.415 7.25-.92 0-.505.312-1.731.693-2.725.594-1.546.286-1.486-2.135.418-1.555 1.224-4.082 2.225-5.614 2.225h-2.786v-16h2.85c1.567 0 3.578.729 4.468 1.619 1.979 1.978 3.363.936 1.881-1.417-1.244-1.977-2.109-2.103-8.857-1.298m12.459-.582c-.022.098-.134 4.341-.25 9.428l-.209 9.251 5.3-.001c9.264 0 12.79-3.23 12.024-11.013-.432-4.39-3.867-6.66-11.074-7.318-3.162-.288-5.768-.445-5.791-.347m36.041.568-4.5.61v17.359l6.742.32c6.894.328 7.758-.11 7.758-3.935 0-1.289-.441-1.178-2.314.582-4.065 3.818-7.686 2.957-7.686-1.826 0-4.438.296-4.616 4.25-2.553 2.721 1.419 2.75 1.401 2.75-1.706 0-2.443-.267-2.874-1.2-1.941-2.683 2.683-5.8 1.447-5.8-2.3 0-4.074 3.718-4.97 7.273-1.753 1.862 1.685 1.918 1.658 1.579-.75-.391-2.775-1.671-3.08-8.852-2.107m11.675-.232c-.362.362-.162 1.255.444 1.985.668.806.952 4.279.722 8.842-.237 4.686.004 7.516.64 7.517.61.001.92-2.508.773-6.25l-.246-6.252 3.21 6.25c1.765 3.438 3.492 6.25 3.838 6.25.345 0 1.929-3.262 3.519-7.25 3.112-7.803 3.928-7.206 3.262 2.386-.32 4.613-.207 4.865 2.163 4.865 2.5 0 2.5-.002 2.317-9.251-.165-8.342-.362-9.217-2-8.916-2.492.457-2.794.863-5.533 7.428l-2.405 5.762-2.914-6.097c-3.086-6.457-5.939-9.119-7.79-7.269m24.284-.393c-.022.129-.134 4.398-.25 9.485l-.209 9.251 2.769-.001c2.452 0 2.697-.285 2.143-2.493-.5-1.995-.155-2.681 1.731-3.436 1.704-.683 1.877-.962.626-1.008-2.053-.075-3.256-3.988-2.343-7.626.521-2.075 1.158-2.503 3.34-2.25 3.382.392 5.324 4.838 3.436 7.862-1.801 2.883 1.208 2.631 3.241-.272 3.592-5.128.8-8.238-8.193-9.128-3.437-.34-6.268-.513-6.291-.384m22.517 1.083c-9.464 4.273-5.572 18.276 5.017 18.054 6.255-.131 9.962-3.629 9.962-9.402 0-7.307-7.878-11.858-14.979-8.652m17.112-.464c-.668 1.13 6.896 19.115 7.912 18.812.55-.164 1.965-2.287 3.145-4.717l2.144-4.419 1.606 3.842c.883 2.113 1.605 4.237 1.605 4.72 0 1.285 1.596 1.071 2.786-.372.567-.687 2.268-4.4 3.78-8.25 1.511-3.85 3.182-7.562 3.713-8.25.706-.913.378-1.25-1.216-1.25-1.286 0-1.911.436-1.524 1.063.851 1.377-3.591 13.308-4.559 12.244-1.282-1.41-4.983-12.303-4.216-12.407.405-.055-.389-.434-1.764-.842-3.68-1.094-4.119-.395-2.418 3.854 1.333 3.332 1.349 4.263.122 7.207l-1.409 3.381-1.728-4c-.95-2.2-1.968-5.42-2.263-7.156-.497-2.929-4.571-5.396-5.716-3.46m66.37-.384c-.021 0-.133 4.163-.249 9.25l-.209 9.251 7.25-.001c3.988 0 7.25-.413 7.25-.918 0-.505.297-1.743.66-2.75.546-1.515.218-1.429-1.896.494-4.058 3.694-8.351 2.741-7.983-1.773.361-4.446.518-4.549 4.157-2.734l3.062 1.528v-3.124c0-2.429-.267-2.856-1.2-1.923-2.574 2.574-5.554 1.429-5.99-2.3-.386-3.306-.244-3.5 2.562-3.5 1.634 0 3.846.788 4.915 1.75 1.864 1.677 1.93 1.666 1.57-.25-.332-1.766-6.051-3-13.899-3m19.542.473-3 .527v17.503l5.673-.001c7.548-.003 11.827-3.251 11.827-8.98 0-6.792-6.007-10.54-14.5-9.049m61.75.522c-4.464 3.21-2.816 7.476 4.02 10.406 4.761 2.041 5.745 3.684 3.53 5.899-.736.736-.796 1.2-.155 1.2.575 0 1.872-.914 2.882-2.03 2.936-3.244 1.016-7.043-4.534-8.972-4.609-1.603-6.418-4.48-3.841-6.113 2.071-1.313 2.751-1.092 5.378 1.742 2.129 2.297 2.517 2.414 3.085.933 1.396-3.637-6.375-5.934-10.365-3.065m37.133.039c-9.304 4.736-5.484 18.091 5.11 17.868 6.255-.131 9.962-3.629 9.962-9.402 0-7.456-8.109-12.01-15.072-8.466m-200.728 1.295c-3.36 3.713-1.527 12.997 2.97 15.046 6.185 2.818 8.969-8.435 3.452-13.952-3.419-3.419-4.198-3.552-6.422-1.094M256.5 465v9h6.25c3.438 0 6.587-.009 7-.019.763-.019 2.42-4.981 1.664-4.981-.228 0-1.314.9-2.414 2-1.111 1.111-3.333 2-5 2-2.847 0-3-.21-3-4.108 0-3.979.086-4.087 2.74-3.421 1.507.378 3.026 1.15 3.375 1.715 1.05 1.7 1.623-.507.827-3.186-.408-1.375-.787-1.937-.842-1.25-.056.7-1.42 1.25-3.1 1.25-2.762 0-3-.278-3-3.5 0-3.203.248-3.5 2.929-3.5 1.61 0 3.657.729 4.547 1.619 1.88 1.88 2.849 1.393 1.941-.976-.498-1.296-2.034-1.643-7.274-1.643H256.5v9m17 0c0 8.98.006 9 2.549 9 2.325 0 2.513-.308 2.141-3.5-.546-4.674 1.751-4.677 4.931-.007 1.78 2.614 3.097 3.495 5.233 3.5l2.853.007-3.066-3.492-3.066-3.492 2.463-2.463c5.038-5.038 1.908-8.553-7.617-8.553H273.5v9m63.075-1.247c.041 4.261-.351 8.31-.872 8.997-.714.941-.102 1.25 2.474 1.25 3.321 0 3.409-.102 3.013-3.5-.538-4.608 1.561-4.632 4.527-.053l2.216 3.423 10.536.315c5.794.173 10.54.09 10.547-.185.006-.275.297-1.625.646-3l.634-2.5-2.462 2.25c-4.018 3.671-7.834 3.062-7.834-1.25 0-3.747 3.117-4.983 5.8-2.3.933.933 1.2.444 1.2-2.2s-.267-3.133-1.2-2.2c-2.683 2.683-5.8 1.447-5.8-2.3 0-4.027 3.706-4.981 7.171-1.845 1.718 1.555 1.829 1.524 1.829-.5 0-2.018-.484-2.155-7.622-2.155-6.446 0-7.442.218-6.453 1.41.715.862 1.055 4.066.873 8.24-.351 8.041-2.192 9.414-5.812 4.331l-2.225-3.125 2.12-1.485c2.754-1.929 2.865-6.902.185-8.336-1.064-.569-4.552-1.034-7.75-1.032l-5.816.003.075 7.747m50.425-5.03v2.722l1.557-2.222c.856-1.223 2.464-2.223 3.573-2.223 1.89 0 1.997.536 1.693 8.502-.322 8.489-.319 8.503 2.177 8.503s2.499-.014 2.177-8.503c-.303-7.951-.194-8.502 1.682-8.502 1.202 0 2.293.902 2.722 2.25.692 2.178.74 2.186 1.497.25.43-1.1.813-2.337.852-2.75.038-.413-3.98-.75-8.93-.75h-9v2.723m25.655-.894c-5.18 5.723 1.277 18.709 7.229 14.54 4.025-2.82 2.323-13.043-2.541-15.259-3.055-1.392-2.734-1.441-4.688.719M429.5 465c0 8.98.006 9 2.549 9 2.325 0 2.513-.308 2.141-3.5-.538-4.608 1.561-4.632 4.527-.053l2.216 3.423 10.536.315c5.794.173 10.54.09 10.547-.185.006-.275.297-1.625.646-3l.634-2.5-2.462 2.25c-4.241 3.875-7.834 3.072-7.834-1.75 0-4.401 1.146-4.987 4.777-2.443 2.161 1.513 2.223 1.465 2.223-1.7 0-2.533-.267-2.99-1.2-2.057-2.683 2.683-5.8 1.447-5.8-2.3 0-4.027 3.706-4.981 7.171-1.845 1.718 1.555 1.829 1.524 1.829-.5 0-1.994-.505-2.155-6.75-2.157l-6.75-.001v8.234c0 9.516-1.625 11.21-5.514 5.75l-2.225-3.125 2.12-1.485c2.349-1.646 2.864-6.226.919-8.171-.689-.689-3.989-1.2-7.75-1.2h-6.55v9m36.331-1.452c.213 4.873-.096 8.067-.873 9.002-1.027 1.238-.372 1.45 4.469 1.45 10.481 0 15.899-5.801 12.463-13.343-1.477-3.241-4.876-4.657-11.187-4.659l-5.203-.003.331 7.553m-346.623 1.202.292 7.75 2.951.336c3.625.412 5.549-1.873 5.549-6.593 0-5.728-2.555-9.199-6.792-9.228-2.219-.015-2.283.234-2 7.735m158.985-3.5c.382 5.283 4.882 6.875 6.901 2.442 1.637-3.592-.302-6.692-4.187-6.692-2.937 0-3.013.12-2.714 4.25M314 465v8h2.977c4.037 0 6.491-3.727 5.693-8.643-.721-4.445-3.224-7.357-6.325-7.357-2.265 0-2.345.274-2.345 8m27-3.437c0 4.546.012 4.563 3.25 4.25 5.655-.545 4.837-8.813-.872-8.813-2.157 0-2.378.425-2.378 4.563m93 0c0 4.546.012 4.563 3.25 4.25 5.655-.545 4.837-8.813-.872-8.813-2.157 0-2.378.425-2.378 4.563M470 465v8h2.8c3.934 0 5.2-1.699 5.2-6.977 0-5.48-2.182-9.023-5.557-9.023-2.387 0-2.443.183-2.443 8m-403.839-2.453C64.592 465.99 64.597 466 67.913 466c2.822 0 2.878-.094 1.781-3-1.383-3.663-2.033-3.746-3.533-.453M106 463.898l-2.5.699 3.25 1.625c3.22 1.61 3.25 1.602 3.25-.799 0-2.571-.108-2.613-4-1.525m266.275 6.033c-.917 1.468-.912 2.113.02 2.846 1.91 1.501 6.705 2.389 6.705 1.242 0-.56-.661-1.019-1.468-1.019-.807 0-2.054-1.118-2.77-2.484-1.243-2.372-1.354-2.399-2.487-.585m-237.829 1.156c-.941 1.523 1.103 3.3 2.97 2.584.898-.345 1.302-1.242.96-2.133-.682-1.779-2.949-2.039-3.93-.451m195.242-.441c-1.416 1.415-.615 3.354 1.385 3.354 1.398 0 1.968-.543 1.75-1.667-.357-1.841-2.064-2.759-3.135-1.687m156 0c-1.374 1.374-.662 3.496 1.062 3.164.962-.186 1.75-.969 1.75-1.74 0-1.579-1.764-2.472-2.812-1.424" fill-rule="evenodd"/><path fill="#ebb061" stroke="#ebb061" stroke-width="1px" d="M269.27 34.703c-7.042 1.36-7.534 8.155-1.27 17.534 4.56 6.83 5.258 13.045 2.489 22.172-2.89 9.527-1.301 15.415 4.726 17.516 4.127 1.439 20.493 1.233 29.785-.375l7.5-1.297-12.052.516c-21.289.912-26.741-3.154-20.938-15.618 3.336-7.168 3.151-10.153-1.205-19.436-8.819-18.793 8.87-16.448 30.907 4.097 11.038 10.29 4.622-.278-7.937-13.074-10.646-10.848-19.98-14.358-32.005-12.035m110.194 1.609c-6.394 3.044-15.887 11.812-22.764 21.023-7.836 10.495-7.819 10.87.152 3.4 22.026-20.644 41.966-24.158 32.284-5.689-4.566 8.712-4.919 12.605-1.75 19.305 6.218 13.144.905 17.362-20.677 16.418l-12.209-.534 8 1.307c10.985 1.796 25.706 1.817 29.952.043 5.823-2.433 7.042-8.192 3.943-18.627-2.503-8.429-1.561-14.459 3.425-21.927 4.797-7.183 5.139-9.804 1.788-13.7-3.474-4.039-14.717-4.556-22.144-1.019m-63.252.24c1.72.934 4.026 4.116 6.31 8.71 1.979 3.981 3.288 6.113 2.91 4.738-1.852-6.724-7.77-15.049-10.637-14.96-.712.022-.075.702 1.417 1.512m33.005.009c-2.06 1.442-5.903 7.439-4.768 7.439.275 0 1.192-1.339 2.038-2.975.846-1.636 2.77-3.643 4.276-4.46 1.505-.817 2.275-1.503 1.71-1.525-.566-.022-2.031.662-3.256 1.521m-70.967 8.101c-2.089.843-1.386 5.52 1.763 11.729 3.71 7.317 3.846 12.49.52 19.756-4.159 9.085-1.65 12.129 11.027 13.378 6.74.664 22.211-1.097 31.688-3.608l3.747-.993-2.558-5.049c-8.091-15.967-37.783-38.604-46.187-35.213m102.426.768c-10.066 3.647-32.75 24.109-37.496 33.822-2.146 4.391-4.138 6.687-2.818 3.248.938-2.446-.028-1.718-2.133 1.608-1.567 2.475-1.799 3.861-1.137 6.807.457 2.034 1.063 12.448 1.347 23.142.496 18.733 1.89 28.557 4.656 32.817.888 1.367.953 1.308.409-.374-4.457-13.779-4.58-20.148-.222-11.5 4.229 8.393 8.997 15.287 12.464 18.019 11.547 9.103 42.15-22.77 38.834-40.445-1.28-6.825-6.743-11.007-18.284-13.997-8.357-2.166-8.621-1.996-2.303 1.486 11.592 6.389 14.444 11.898 11.095 21.428C380.745 133.846 369.976 145 362.39 145c-10.088 0-21.32-22.103-21.373-42.059-.02-7.695 1.17-9.712 5.983-10.141l3.5-.311-4-1.365c-5.899-2.014-6.26-2.931-.799-2.032 8.284 1.362 9.125.789 1.377-.938-4.082-.91-7.592-2.172-7.8-2.804-.272-.827.691-.784 3.422.154 6.647 2.281 25.419 4.756 32.323 4.262 12.898-.923 16.036-4.72 11.619-14.058-3.509-7.417-3.339-10.633 1.053-19.993 4.998-10.651 2.815-13.849-7.019-10.285m-230.777 1.018c-12.545 3.46-22.682 10.589-26.143 18.385-2.61 5.882-2.018 6.004 6.447 1.331 28.879-15.941 61.013-15.41 78.198 1.292 7.863 7.642 10.822 18.625 7.263 26.963l-1.246 2.92-1.294-4.32c-1.826-6.094-10.057-14.102-17.269-16.8-12.657-4.736-21.477-3.994-40.658 3.419-6.29 2.431-14.87 5.004-19.067 5.717l-7.63 1.298 5.5 3.175c14.002 8.084 24.944 9.914 48.17 8.059 12.127-.969 16.561-.985 19.614-.07 3.996 1.197 9.216 4.666 9.216 6.124 0 .9-10.812 2.856-17.228 3.117-.95.038-2.703 1.278-3.895 2.756-2.019 2.501-2.13 2.531-1.616.435.349-1.422.168-2.014-.49-1.607-.574.354-1.977.692-3.118.751-1.167.06-3.076 1.594-4.364 3.505-2.313 3.433-3.2 2.673-1.213-1.039.977-1.827.886-1.909-1.009-.895-1.628.871-1.945 1.71-1.447 3.826 1.012 4.298 2.04 4.62 3.307 1.036 1.071-3.029 1.272-3.157 2.254-1.433.987 1.733 1.205 1.605 2.562-1.5.98-2.24 1.642-2.883 1.95-1.893.256.825.688 2.175.961 3 .333 1.009 1.018.354 2.09-2l1.594-3.5.604 3.5.603 3.5 1.35-3.5c1.3-3.369 1.375-3.409 2.003-1.083l.653 2.417 1.72-2.626c2.266-3.457 8.803-5.496 12.795-3.989l2.886 1.089-1.456-2.816c-3.862-7.467-10.169-9.546-25.424-8.378-24.764 1.896-37.121.452-49.297-5.763l-6.275-3.203 6.064-1.256c3.336-.691 12.336-3.612 20-6.49 13.087-4.914 14.485-5.231 22.936-5.2 15.717.06 28.48 7.502 31.591 18.423 1.777 6.238 2.429 6.531 4.274 1.92 7.031-17.573-7.484-35.494-33.002-40.746-14.483-2.981-34.124.75-51.308 9.747-8.511 4.456-8.849 4.43-6.51-.499 3.272-6.896 13.167-13.003 26.758-16.516 3.958-1.023 6.072-1.858 4.697-1.856-1.375.002-4.57.575-7.101 1.273M194 45.72c8.695 3.255 16.99 5.87 16.24 5.12-1.088-1.088-14.878-5.878-16.586-5.761-.635.043-.479.332.346.641m148.624.819c-.965 2.514-.681 3.163.498 1.136.584-1.004.851-2.036.593-2.293-.257-.258-.749.263-1.091 1.157m-128.633 7.182c13.226 9.445 16.477 17.383 17.93 43.779.769 13.973.771 13.981.919 4 .382-25.751-6.089-42.288-18.946-48.416-2.364-1.128-2.363-1.12.097.637m112.088.862c.048 1.165.285 1.402.604.605.289-.722.253-1.585-.079-1.917-.332-.332-.568.258-.525 1.312m13.492.988c-.367 1.466-.475 2.858-.24 3.094.236.235.73-.771 1.098-2.236.367-1.466.475-2.858.24-3.094-.236-.235-.73.771-1.098 2.236M287 56.405c0 .222 2.587 1.857 5.75 3.632 6.063 3.404 20.428 14.236 23.655 17.837 1.048 1.169 2.369 2.126 2.937 2.126 2.962 0-13.892-13.897-24.783-20.434-5.516-3.31-7.559-4.165-7.559-3.161m84.044 4.135C363.175 65.392 348 77.704 348 79.236c0 .508 2.587-1.401 5.75-4.243 4.779-4.294 11.997-9.422 24.891-17.684 1.022-.655 1.388-1.218.813-1.25-.575-.033-4.36 1.984-8.41 4.481M328.158 62c0 1.375.227 1.938.504 1.25.278-.687.278-1.812 0-2.5-.277-.687-.504-.125-.504 1.25m9.921-.417c.048 1.165.285 1.402.604.605.289-.722.253-1.585-.079-1.917-.332-.332-.568.258-.525 1.312M337.158 66c0 1.375.227 1.938.504 1.25.278-.687.278-1.812 0-2.5-.277-.687-.504-.125-.504 1.25m-8.079.583c.048 1.165.285 1.402.604.605.289-.722.253-1.585-.079-1.917-.332-.332-.568.258-.525 1.312m1.116 4.917c.02 1.65.244 2.204.498 1.231.254-.973.237-2.323-.037-3-.274-.677-.481.119-.461 1.769m5.963-.5c0 1.375.227 1.938.504 1.25.278-.687.278-1.812 0-2.5-.277-.687-.504-.125-.504 1.25m-.963 5.5c.02 1.65.244 2.204.498 1.231.254-.973.237-2.323-.037-3-.274-.677-.481.119-.461 1.769m-4.037.5c0 1.375.227 1.938.504 1.25.278-.687.278-1.812 0-2.5-.277-.687-.504-.125-.504 1.25M294.5 79.07c5.5.426 12.475 1.473 15.5 2.327 9.381 2.649 10.759 2.907 8.779 1.638-3.911-2.505-17.203-5.033-25.689-4.887l-8.59.149 10 .773m64.846.427c-3.384.736-7.434 2.076-9 2.978-3.099 1.786-2.216 1.657 6.654-.969 3.025-.895 10-1.984 15.5-2.419l10-.79-8.5-.069c-4.675-.038-11.269.533-14.654 1.269m-26.991 3.02c-1.001 2.609.427 4.909 2.157 3.473.818-.679 1.488-1.807 1.488-2.505 0-1.902-2.983-2.694-3.645-.968m-4.379 1.248c1.22 2.488 1.463 2.304-5.476 4.138l-4 1.057 4.333-.396c5.195-.475 5.098-.307-1.336 2.301l-4.997 2.026 3.628.054c5.609.085 6.24 1.589 5.593 13.329C324.62 126.246 314.425 145 304.669 145c-7.005 0-15.208-7.618-20.697-19.221-5.978-12.636-2.744-20.447 11.056-26.707 6.192-2.808 2.669-2.575-6.936.459-13.955 4.408-17.636 9.893-14.598 21.75C277.189 135.705 295.705 155 305.851 155c5.033 0 11.713-8.085 19.416-23.5 3.495-6.994 3.498-7.014 4.01-24 .281-9.35.787-17.9 1.125-19 .388-1.268-.147-2.915-1.462-4.5-1.903-2.294-1.983-2.313-.964-.235m3.321 6.975c-1.408 6.642-.73 40.219.914 45.26l1.467 4.5 1.265-4c1.524-4.818 2.577-31.824 1.597-40.97-.888-8.295-3.914-11.059-5.243-4.79m-17.028-1.047c.973.254 2.323.237 3-.037.677-.274-.119-.481-1.769-.461-1.65.02-2.204.244-1.231.498M122.358 98.25c.385 4.414.23 7.837-.396 8.75-1.141 1.662-1.148 1.655-7.035-6.783-11.822-16.948-22.635-6.107-17.43 17.477C103.929 146.838 113.454 163 124.199 163c3.439 0 3.489.065 7.147 9.306 9.132 23.074 25.234 52.669 37.623 69.152 19.507 25.953 53.797 51.034 68.963 50.442 1.412-.056-.315-.731-3.839-1.502-21.362-4.672-52.205-30.655-72.289-60.898-8.512-12.817-23.246-41.596-29.679-57.97l-3.917-9.97-4.023.291c-16.562 1.196-37.464-64.48-21.775-68.418 4.521-1.134 12.978 5.912 15.093 12.576.857 2.701 3.717 3.41 5.257 1.304.951-1.301 1.13-3.66.648-8.554-.807-8.184-.13-8.437 6.385-2.391 4.39 4.075 10.063 7.69 11.907 7.588.44-.025-.802-.891-2.76-1.927-1.958-1.035-5.849-3.94-8.647-6.455-7.496-6.74-8.722-6.326-7.935 2.676m185.845-2.693c-23.26 6.261-30.051 15.273-22.705 30.136 9.628 19.481 21.882 23.239 30.266 9.282 7.629-12.7 12.249-35.562 8.036-39.775-1.586-1.586-9.007-1.416-15.597.357m34.699.627c-3.933 7.347 3.214 33.328 11.979 43.552 7.123 8.309 18.996 2.112 26.965-14.074 6.173-12.54 3.821-18.347-10.196-25.166-13.668-6.649-26.47-8.569-28.748-4.312m-27.651 4.307c-7.2 3.129-24.251 17.077-24.251 19.838 0 .49 2.528-1.677 5.617-4.816 5.821-5.915 16.09-13.15 20.088-14.154 1.262-.317 2.295-.977 2.295-1.467 0-1.088.205-1.12-3.749.599m33.974-.209c.948.67 4.521 2.793 7.939 4.718 3.419 1.925 9.375 6.648 13.236 10.495 3.861 3.847 6.617 6.322 6.123 5.5-3.965-6.601-11.413-13.094-21.639-18.865-5.436-3.068-9.064-4.253-5.659-1.848m-205.475 4.38c.688.278 1.813.278 2.5 0 .688-.277.125-.504-1.25-.504s-1.937.227-1.25.504m171.841 3.997c-4.511 6.134-12.81 22.965-12.393 25.132.174.903 1.57-1.555 3.103-5.462 1.533-3.907 5.24-10.831 8.238-15.388 5.993-9.109 6.691-11.949 1.052-4.282M348 104.801c0 .657 1.58 3.393 3.511 6.081 3.476 4.839 11.489 20.89 11.489 23.015 0 .607.443 1.103.985 1.103 2.148 0-6.934-19.038-13.094-27.447-1.59-2.171-2.891-3.409-2.891-2.752M148 106c0 .55.423 1 .941 1s1.219-.45 1.559-1c.34-.55-.084-1-.941-1s-1.559.45-1.559 1m-4.279 4.385c-3.645 3.788-2.691 4.609 1.377 1.186 1.75-1.473 3.831-2.429 4.623-2.124.793.304 2.417-.137 3.61-.98 2.068-1.462 1.96-1.52-2.331-1.252-3.434.215-5.158.965-7.279 3.17m8.954-.263c-1.004.584-2.087.799-2.408.478-.998-.998-3.267 1.543-3.267 3.659 0 1.853.213 1.801 2.676-.662 1.472-1.472 3.178-2.483 3.792-2.248.614.236 1.97-.196 3.015-.96 1.86-1.36 1.859-1.388-.042-1.359-1.067.017-2.762.508-3.766 1.092m5.575.851c-2.338 1.061-4.257 1.614-4.265 1.228-.035-1.581-1.956 2.442-1.97 4.126-.012 1.441.531 1.177 2.574-1.25 3.3-3.922 4.16-3.882 3.68.173l-.385 3.25 2.141-2.75c2.927-3.758 3.948-3.45 3.318 1l-.531 3.75 2.013-3.141c3.058-4.772 4.132-4.963 3.55-.631-.442 3.297-.35 3.524.734 1.8 1.31-2.085 1.999-7.528.953-7.528-.339 0-1.73.756-3.089 1.681l-2.473 1.681 1.905-2.181c2.252-2.578 1.774-2.681-3.187-.686l-3.718 1.494 2.361-1.994c2.953-2.496 1.853-2.502-3.611-.022m14.611 1.103c-1.299 1.142-1.798 1.791-1.111 1.441.874-.444 1.26.361 1.282 2.674.03 3.126.113 3.202 1.5 1.368 1.681-2.222 1.949-3.974.468-3.059-1.284.793-1.271-.125.035-2.566 1.328-2.48.766-2.444-2.174.142m10.598-1.009c-.363.586-.445 1.281-.183 1.543s.743-.218 1.069-1.067c.676-1.762.1-2.072-.886-.476m49.189 15.896c-.969 14.774-2.182 19.295-8.83 32.904-6.432 13.166-7.154 17.952-3.15 20.88 2.055 1.502 5.97 1.647 6.832.253 1.061-1.717 4.26-1.103 8.206 1.575 4.319 2.931 8.272 2.733 11.81-.59 2.441-2.293 6.723-2.607 8.378-.613.906 1.092.482 1.644-2.074 2.702-8.386 3.474-12.658 10.855-11.345 19.605.748 4.99.478 5.097-6.549 2.601-5.952-2.114-10.03-.511-18.926 7.44-3.025 2.703-8.162 6.867-11.415 9.251l-5.916 4.336 4.416 3.866c30.431 26.642 57.962 25.849 77.968-2.247l2.037-2.862-3.795 1.59c-3.01 1.262-5.759 1.456-13.295.94-7.157-.49-10.733-.276-14.5.867-2.75.835-7.25 1.458-10 1.386-4.952-.13-4.937-.138 1.5-.89 3.575-.417 8.075-1.257 10-1.866 2.007-.636 7.767-.94 13.5-.713 6.578.26 8.289.147 5-.329l-5-.723 6.559-.163c5.398-.134 13.86-3.011 9.211-3.131-.677-.018-4.727-3.243-9-7.167-12.56-11.534-20.415-13.964-27.5-8.506-2.257 1.738-.383 12.613 2.186 12.683 2.151.059 18.89 5.865 17.044 5.911-.825.021-4.65-1.075-8.5-2.436-8.763-3.098-9.827-3.099-12.909-.017-2.09 2.09-3.368 2.476-7.796 2.353l-5.295-.147 5.5-.614c5.843-.651 8-1.538 8-3.289 0-1.059-8.484-.543-12.665.771-1.648.518-1.665.467-.16-.506.92-.596 4.451-1.373 7.844-1.728l6.17-.645-.629-3.097c-4.218-20.786-2.393-27.197 8.97-31.511l4.753-1.804-2.142-2.142c-2.824-2.824-6.416-2.706-10.926.359-2.024 1.375-4.37 2.5-5.215 2.5-.845 0-3.191-1.125-5.215-2.5-3.829-2.602-7.224-3.217-8.285-1.5-1.114 1.802-5.347 1.057-6.943-1.223-2.442-3.485-1.933-5.744 3.913-17.352 3.008-5.974 6.152-13.867 6.988-17.539 1.522-6.692 3.282-26.886 2.343-26.886-.275 0-.794 4.483-1.153 9.963M344 149.642c0 .537.7 1.849 1.555 2.917 1.467 1.83 1.487 1.798.365-.559-1.458-3.061-1.92-3.628-1.92-2.358m3.605 6.608c.398.688 2.53 3.859 4.737 7.047l4.013 5.796-3.291 8.204c-7.682 19.145-21.284 43.141-34.409 60.703-8.693 11.631-33.976 37.115-42.155 42.489-6.967 4.578-9.052 6.284-5.5 4.5 9.664-4.855 34.509-28.539 47.262-45.054 13.102-16.965 27.546-42.248 35.766-62.602l3.298-8.168-4.84-7.082c-4.22-6.177-7.008-9.509-4.881-5.833M228.5 224c.34.55 1.068 1 1.618 1s.722-.45.382-1c-.34-.55-1.068-1-1.618-1s-.722.45-.382 1m-4 2c-1.1.473-6.725.95-12.5 1.061-10.015.192-10.223.238-4.5 1.008 5.544.745 16.213-.156 18.487-1.561.534-.33 1.993-.105 3.242.501 2.177 1.056 2.191 1.037.33-.454-2.175-1.742-2.272-1.753-5.059-.555m8.5 3c.825.533 2.175.945 3 .914.989-.036.819-.347-.5-.914-2.749-1.181-4.328-1.181-2.5 0m29.5 59.055c-2.2 1.041-3.325 1.885-2.5 1.877.825-.009 3.075-.878 5-1.932 4.491-2.459 2.73-2.42-2.5.055m52.408 14.555c-.976 1.176-1.446 6.705-1.742 20.5l-.407 18.89h-2.963c-3.53 0-3.357 2.159.242 3.009 2.752.65 3.714 3.257 3.871 10.491.06 2.75.395 7.386.745 10.302l.637 5.301 3.604-.301 3.605-.302-.297-7.25c-.357-8.68-.281-8.713 4.281-1.841 7.563 11.396 17.23 11.939 22.682 1.275 2.474-4.84 4.98-13.639 4.229-14.854-1.11-1.796-2.366-.652-3.367 3.068-2.738 10.167-7.547 17.608-10.618 16.429-2.171-.833-14.78-20.39-13.729-21.293.45-.387 2.93-1.48 5.511-2.429 16.849-6.198 23.704-30.922 10.383-37.45-4.678-2.293-9.431-.678-14.825 5.038l-4.75 5.034V301h-2.878c-1.582 0-3.479.725-4.214 1.61m-68.699.956c-4.457 3.122-8.963 18.851-9.189 32.076-.011.627-1.032 1.395-2.27 1.706-1.238.311-3.15 1.29-4.25 2.177-1.902 1.532-1.8 1.585 2.068 1.061l4.068-.552 1.15 9.733c2.516 21.314 9.732 29.033 21.717 23.231C265.333 370.176 275 361.381 275 358.9c0-2.809-.638-2.468-7.643 4.085-14.174 13.259-16.601 11.459-17.505-12.985l-.352-9.5 7-.244c15.389-.538 17.948-2.533 3.603-2.809-4.866-.094-9.355-.484-9.975-.868-2.029-1.254-.588-28.571 1.619-30.7.414-.399 3.825-.03 7.581.82 9.838 2.228 10.852.243 1.294-2.535-8.866-2.576-11.437-2.682-14.413-.598m-63.347 5.184c-.599 1.512-1.796 7.363-2.66 13l-1.57 10.25H164v-7.36c0-13.838-.76-16.64-4.511-16.64-3.854 0-4.489 1.917-4.489 13.543 0 8.396-.563 10.456-2.857 10.461-2.531.005-8.143 3.783-8.143 5.481 0 2.074 1.696 1.9 4.727-.485 4.998-3.931 5.202-3.385 5.499 14.75l.274 16.75 3.194.309c3.87.375 3.935.106 4.872-20.059l.639-13.75H178l.008 9.25c.027 34.021 13.995 44.532 24.763 18.636 4.148-9.974 4.831-12.886 3.022-12.886-.855 0-3.314 4.349-6.154 10.886-4.642 10.685-7.558 14.9-9.482 13.711-3.439-2.125-6.197-23.406-4.48-34.562.774-5.032 1.097-5.539 4.082-6.395 3.805-1.091 4.406-3.096.717-2.391-1.388.266-2.766.091-3.062-.388-.489-.791 3.084-20.389 4.291-23.534.372-.971-.6-1.327-3.623-1.327-3.576 0-4.278.369-5.22 2.75m149.969 2.094c-6.448 5.661-10.831 17.13-10.831 28.34 0 4.764 2.571 5.132 8.591 1.228 10.102-6.551 14.424-23.841 7.651-30.614-1.964-1.964-1.988-1.96-5.411 1.046m-117.467 51.649c-.346.903-.15 2.121.436 2.707 1.524 1.524 4.41.131 4.012-1.935-.443-2.302-3.647-2.858-4.448-.772m70.044-.115c-.809 2.109.327 3.622 2.721 3.622 1.51 0 1.931-.557 1.691-2.24-.373-2.614-3.556-3.611-4.412-1.382m76.956.115c-.346.903-.15 2.121.436 2.707 1.524 1.524 4.41.131 4.012-1.935-.443-2.302-3.647-2.858-4.448-.772M268.5 407c-.368 1.158-1.553 2.03-2.817 2.07-1.951.063-1.987.148-.335.798 1.6.629 1.868 1.999 2 10.225.28 17.479 7.583 20.586 12.124 5.157 1.315-4.465-1.033-2.129-3.014 3-3.574 9.252-6.153 4.252-4.992-9.679l.714-8.571h4.91c2.7 0 4.91-.45 4.91-1s-2.25-1-5-1c-3.778 0-5-.367-5-1.5 0-2.217-2.763-1.822-3.5.5m-65 4c-.34.55.084 1 .941 1s1.559-.45 1.559-1-.423-1-.941-1-1.219.45-1.559 1m35.5 0c0 .55.45 1 1 1s1-.45 1-1-.45-1-1-1-1 .45-1 1m65 0c0 .55.702 1 1.559 1s1.281-.45.941-1c-.34-.55-1.041-1-1.559-1s-.941.45-.941 1m-131.341 1.75c-2.075 3.389-1.73 19.25.418 19.25 1.129 0 1.293-.466 2.858-8.116 2.328-11.384 5.142-11.671 6.002-.613.653 8.379 1.792 9.153 3.724 2.528 1.812-6.215 3.152-6.818 3.958-1.779.745 4.658 2.717 7.172 4.953 6.314 1.681-.645 5.956-8.334 4.634-8.334-.46 0-1.587 1.575-2.505 3.5-2.472 5.185-4.643 3.737-4.687-3.128-.025-3.862-2.716-5.001-5.543-2.344L184 422.349v-3.103c0-4.623-2.523-6.789-5.577-4.787-3.047 1.996-3.423 1.946-3.423-.459 0-1.962-1.436-2.729-2.341-1.25m77.35 8.435c-1.235 5.096-2.493 9.914-2.797 10.705-.317.827-.117 1.169.471.806.563-.348 1.796-3.234 2.74-6.414 3.008-10.132 3.101-10.256 4.494-6.032 1.161 3.516 1.08 3.849-1.472 6.044-3.792 3.261-2.719 6.706 2.087 6.706 3.651 0 5.848-2.467 5.274-5.925-.168-1.015.819-2.823 2.194-4.017 2.437-2.116 2.441-2.142.164-1.033-2.743 1.336-2.835 1.265-6.128-4.755-3.761-6.873-4.515-6.453-7.027 3.915m32.168.536c-1.031 9.078-.946 11.382.369 10.066.3-.3 1.075-4.425 1.722-9.166.919-6.744 1.523-8.621 2.774-8.621 1.373 0 1.537 1.181 1.161 8.346-.521 9.941.585 12.929 4.614 12.464 2.812-.325 6.276-5.811 7.773-12.31 1.029-4.466-.608-2.289-3.519 4.68-4.093 9.799-5.39 8.982-4.906-3.091.399-9.929.357-10.168-1.878-10.623l-4.648-.95c-2.296-.471-2.391-.219-3.462 9.205m37.052-9.052c-3.822 1.538-5.556 11.991-2.672 16.108 3.175 4.534 8.147 2.391 12.823-5.527 1.789-3.03-1.151-.825-3.695 2.771-3.489 4.932-5.389 5.072-6.254.463-.566-3.016-.287-3.809 1.955-5.573 2.766-2.175 3.414-5.711 1.414-7.711-1.281-1.281-1.591-1.327-3.571-.531m12.626 9.581c-2.367 9.232-2.729 11.957-1.412 10.641.243-.244 1.542-4.253 2.887-8.91l2.444-8.467 1.269 4.234c1.215 4.058 1.157 4.337-1.387 6.695-3.89 3.606-2.835 6.557 2.344 6.557 3.486 0 5-1.725 5-5.7 0-1.815.364-3.3.809-3.3.445 0 1.682-.712 2.75-1.582 1.992-1.623 1.32-1.585-3.009.17-.996.403-1.947-.604-3.038-3.214-1.561-3.735-4.238-7.374-5.426-7.374-.332 0-1.786 4.613-3.231 10.25m-128.605-6.566c-2.929 5.118-1.031 16.316 2.765 16.316 2.068 0 6.442-7.154 5.701-9.325-.221-.646-1.56 1.075-2.975 3.825-3.037 5.902-3.586 5.143-3.97-5.5-.237-6.57-.426-7.229-1.521-5.316m11.218.587c-.313 1.249-.434 5.411-.269 9.25.377 8.731 2.422 9.522 4.422 1.709 3.134-12.247 6.379-14.496 6.379-4.421 0 7.49 1.451 10.723 4.319 9.622 2.011-.771 6.001-7.978 5.402-9.756-.218-.646-1.344.962-2.503 3.575-3.38 7.624-4.591 6.414-4.253-4.25.265-8.363-3.943-10.364-7.956-3.784l-2.002 3.284-.003-3.75c-.005-4.266-2.567-5.338-3.536-1.479m23.162.979c-1.841 6.871-.087 14.75 3.283 14.75 2.115 0 2.997-1.029 5.359-6.25 2.462-5.444.544-4.61-2.15.935-2.88 5.929-4.085 4.481-4.107-4.935-.015-6.65-1.206-8.898-2.385-4.5m64.876 2.71c-1.725 12.535 4.485 16.547 8.961 5.79 2.247-5.402.363-4.623-2.418 1l-2.35 4.75-.951-3.5c-.523-1.925-.702-5.637-.397-8.25.797-6.823-1.906-6.623-2.845.21m17.124-2.71c-.938 3.503-.751 4.095.87 2.75 1.616-1.342 2.068-5 .617-5-.486 0-1.155 1.012-1.487 2.25m-65.641 10.771c-1.226 2.291-.56 3.979 1.57 3.979.934 0 1.441-1.055 1.441-3 0-3.453-1.437-3.92-3.011-.979m83.218-.828c-1.648 1.648-1.525 4.807.186 4.807 1.772 0 2.854-2.736 1.815-4.593-.621-1.109-1.059-1.156-2.001-.214M68.845 456.067c-1.501.84-1.48 1.226.259 4.636 2.785 5.464 2.499 6.297-2.163 6.297-2.232 0-3.805.412-3.494.915.311.503 0 1.172-.691 1.487-.691.315.623.32 2.919.01 4.723-.636 8.773.979 7.934 3.165-.385 1.004.212 1.423 2.029 1.423 1.67 0 2.394-.44 2.059-1.25-.285-.687-1.973-4.85-3.751-9.25-1.779-4.4-3.285-8.079-3.348-8.175-.063-.096-.852.238-1.753.742m148.033 1.819c3.89 3.633 4.878 8.752 2.556 13.243-1.702 3.292-1.699 3.337.161 1.92 7.033-5.358 5.717-14.719-2.39-17.006l-3.295-.929 2.968 2.772M23 465c0 8.333.148 9 2 9 1.625 0 2-.667 2-3.557v-3.558l4.25.308c4.067.294 4.25.447 4.24 3.557-.007 2.592.398 3.25 2 3.25 1.864 0 2.01-.652 2.01-9 0-8.333-.148-9-2-9.001-1.687-.001-2 .665-2 4.25v4.251l-4.25.307-4.25.308v-4.558c0-3.89-.293-4.557-2-4.557-1.852 0-2 .667-2 9m20.5 0c0 8.333.148 9 2 9s2-.667 2-9-.148-9-2-9-2 .667-2 9m10-7.805c1.1.624 2.38 1.623 2.844 2.22.504.647.605.346.25-.747-.327-1.007-.594-2.02-.594-2.25 0-.23-1.013-.404-2.25-.388-2.188.03-2.195.062-.25 1.165m28.589 6.969c-.095 4.49-.406 8.54-.69 9-.285.46.635.836 2.042.836 2.556 0 2.559-.011 2.559-9 0-8.122-.182-9-1.868-9-1.658 0-1.888.921-2.043 8.164m16.742-.616c.213 4.873-.096 8.067-.873 9.002-.999 1.204-.758 1.45 1.42 1.45H102v-9c0-7.904-.213-9-1.75-9.002-1.542-.002-1.711.897-1.419 7.55m8.252-7.287c.23.143 1.398 1.084 2.597 2.092 2.134 1.792 2.169 1.786 1.634-.261-.331-1.264-1.358-2.092-2.597-2.092-1.128 0-1.863.117-1.634.261M115.5 465c0 8.333.148 9 2 9.002 1.876.002 1.98-.556 1.679-9-.272-7.634-.576-9.002-2-9.002-1.448 0-1.679 1.24-1.679 9m8.035-8.048c4.387 1.778 6.548 10.834 3.469 14.543-.767.924-.844 1.505-.199 1.505 3.316 0 6.268-8.039 4.574-12.455-.735-1.915-5.524-4.572-8.079-4.482-1.565.055-1.534.172.235.889m23.286 8.05c-.314 8.81-.272 9.003 1.969 9 2.229-.002 2.286-.242 2.126-9.002-.145-7.949-.375-9-1.969-9-1.583 0-1.845 1.109-2.126 9.002m10.736-7.584c2.095 1.532 3.044 1.364 1.984-.351-.362-.587-1.393-1.067-2.291-1.067-1.365 0-1.315.232.307 1.418m6.253.332c2.188 5.133 7.715 15.25 8.331 15.25 1.886 0 1.039-4.038-2.137-10.193-2.259-4.38-4.114-6.794-5.222-6.799-1.254-.006-1.516.464-.972 1.742M179 465c0 8.333.148 9 2 9s2-.667 2-9-.148-9-2-9-2 .667-2 9m8.5 0c0 8.333.148 9 2 9.002 1.876.002 1.98-.556 1.679-9-.272-7.634-.576-9.002-2-9.002-1.448 0-1.679 1.24-1.679 9m9.371-7.378c1.867 1.308 2.246 2.35 1.958 5.378-.394 4.13 1.498 4.569 2.829.658 1.431-4.206-.856-7.658-5.072-7.658-1.925 0-1.91.085.285 1.622m10.584.833c-5.004 5.003-1.759 15.601 4.75 15.515 2.04-.027 2.101-.144.545-1.05-4.289-2.498-6.053-10.615-3.193-14.697 2.065-2.95.956-2.827-2.102.232m19.796-1.205c.256.688 1.756 4.738 3.334 9 1.577 4.262 3.392 7.75 4.034 7.75 1.426 0 2.609-2.741 1.483-3.437-1.315-.812-5.27-12.483-4.599-13.568.349-.565-.538-.995-2.051-.995-1.714 0-2.5.446-2.201 1.25m9.749-.899c0 .927 2.404 7.604 4.1 11.388 1.045 2.332 1.9 4.694 1.9 5.25s.627 1.011 1.393 1.011c1.595 0 2.929-2.683 1.709-3.437-1.315-.812-5.27-12.483-4.599-13.568.347-.561-.502-.995-1.944-.995-1.407 0-2.559.158-2.559.351m20.389 7.519c-.06 4.328-.424 8.378-.809 9-.449.728.213 1.13 1.861 1.13 2.556 0 2.559-.011 2.559-9 0-7.905-.213-9-1.75-9-1.509 0-1.765 1.084-1.861 7.87m8.694-7.587c.23.156 1.205.886 2.167 1.622 1.498 1.147 1.75 1.106 1.75-.283 0-.997-.835-1.622-2.167-1.622-1.191 0-1.979.127-1.75.283m8.349 8.722c-.065 8.552.037 8.995 2.077 8.995 1.831 0 2.078-.455 1.688-3.111-.29-1.978.046-3.429.923-3.984.998-.633 1.034-.879.13-.89-.831-.01-1.25-1.69-1.25-5.015 0-4.097-.316-4.999-1.75-4.995-1.532.004-1.758 1.128-1.818 9m9.402-7.409c3.1 2.171 2.712 7.576-.599 8.365l-2.266.539 2.552 3.75c1.529 2.248 3.358 3.75 4.566 3.75 1.891 0 1.849-.218-.684-3.538l-2.698-3.538 2.147-2.001c3.994-3.721 1.948-8.923-3.509-8.923-1.513 0-1.437.246.491 1.596M293.5 465c0 7.905.213 9 1.75 9s1.75-1.095 1.75-9-.213-9-1.75-9-1.75 1.095-1.75 9m8.583-8.739c.23.143 1.398 1.084 2.597 2.092 2.134 1.792 2.169 1.786 1.634-.261-.331-1.264-1.358-2.092-2.597-2.092-1.128 0-1.863.117-1.634.261m8.135 8.739c-.062 8.592.033 9 2.108 9.002 2.095.003 2.162-.325 1.853-9-.28-7.859-.548-9.002-2.109-9.002-1.58 0-1.795 1.047-1.852 9m8.467-7.993c4.08 1.644 6.116 11.593 3.065 14.981-.889.988-.529.939 1.247-.17 6.958-4.342 3.392-16.059-4.794-15.755-1.282.048-1.163.281.482.944m18.136 7.991c.276 7.74.563 9.002 2.049 9.002 1.386 0 1.648-.693 1.32-3.5-.29-2.479-.012-3.504.951-3.515 1.145-.013 1.145-.152-.001-.878-.925-.585-1.243-2.343-.993-5.484.324-4.083.133-4.623-1.64-4.625-1.885-.002-1.987.546-1.686 9M347 458c3.048 3.048 1.794 8-2.026 8-1.808 0-1.749.298.786 3.962 1.852 2.678 3.503 3.974 5.094 4 2.32.037 2.309-.013-.787-3.539l-3.141-3.577 2.537-1.996c3.128-2.46 3.248-5.239.314-7.293-3.253-2.279-5.19-1.97-2.777.443m8.5 7c0 8.333.148 9 2 9.001 1.77 0 1.978-.603 1.81-5.25a559.614 559.614 0 0 1-.25-9.001c-.046-2.882-.465-3.75-1.81-3.75-1.537 0-1.75 1.095-1.75 9m11.25-7.167c2.049 2.147 2.542 2.091 1.667-.19-.347-.904-1.258-1.643-2.024-1.643-1.061 0-.976.437.357 1.833m6.821-.262c-3.174 3.175-.722 7.468 5.296 9.271 3.222.965 4.078 1.733 4.381 3.929l.376 2.729 1.093-2.5c1.434-3.281-.259-5.999-4.66-7.481-4.151-1.397-6.47-4.316-4.918-6.187 1.54-1.855.344-1.672-1.568.239m7.858 0c.864.865 1.585 2.102 1.601 2.75.017.649.519.338 1.117-.69 1.144-1.969-.182-3.583-2.968-3.616-.987-.011-.924.383.25 1.556m6.571.051c0 1.389.252 1.43 1.75.283a90.794 90.794 0 0 1 2.167-1.622c.229-.156-.559-.283-1.75-.283-1.332 0-2.167.625-2.167 1.622m6 7.378c0 7.905.213 9 1.75 9s1.75-1.095 1.75-9-.213-9-1.75-9-1.75 1.095-1.75 9m6.868-8.103c.752.477 1.703 1.408 2.111 2.07.504.814.92.529 1.289-.882.452-1.729.091-2.082-2.112-2.07-1.887.011-2.26.267-1.288.882m8.587 1.558c-4.675 4.674-1.857 15.545 4.029 15.545 1.319 0 1.24-.454-.482-2.783-2.943-3.981-3.651-9.577-1.607-12.698 2.097-3.2 1.224-3.229-1.94-.064m10.446.146c2.974 3.781 3.6 8.53 1.627 12.345-1.617 3.127-1.61 3.168.388 2.099 4.742-2.538 5.64-10.58 1.629-14.59-3.515-3.516-6.432-3.398-3.644.146m9.92 6.397c.276 7.74.563 9.002 2.049 9.002 1.386 0 1.648-.693 1.32-3.5-.29-2.479-.012-3.504.951-3.515 1.145-.013 1.145-.152-.001-.878-.925-.585-1.243-2.343-.993-5.484.324-4.083.133-4.623-1.64-4.625-1.885-.002-1.987.546-1.686 9m8.994-8.314c3.555 1.422 3.259 9.316-.35 9.316-1.937 0-1.865.41.785 4.502 1.511 2.332 3.023 3.477 4.604 3.486 2.323.012 2.313-.034-.787-3.565l-3.141-3.577 2.537-1.996c4.094-3.22 1.813-9.042-3.436-8.771-1.118.058-1.175.22-.212.605M448.5 465c0 8.333.148 9 2 9.002 1.876.002 1.98-.556 1.679-9-.272-7.634-.576-9.002-2-9.002-1.448 0-1.679 1.24-1.679 9m11.25-7.167c2.049 2.147 2.542 2.091 1.667-.19-.347-.904-1.258-1.643-2.024-1.643-1.061 0-.976.437.357 1.833M465.5 465v9l3-.079c1.65-.043 2.438-.306 1.75-.583-.861-.348-1.25-3.124-1.25-8.921 0-7.35-.222-8.417-1.75-8.417-1.537 0-1.75 1.095-1.75 9m10.346-7.154c2.603 2.603 3.753 8.543 2.28 11.778-1.679 3.684-1.39 3.973 1.374 1.376 4.628-4.348 2.69-12.749-3.349-14.512l-2.348-.685 2.043 2.043M53 464.032c-1.333.86-1.333 1.076 0 1.936 1.538.992 2.494-.017 1.833-1.936-.215-.624-.866-.624-1.833 0m54.583-.166c-.431.697-.513 1.537-.183 1.867.895.895 1.871-.421 1.387-1.871-.338-1.016-.574-1.016-1.204.004m48.62-.012c-1.037.657-.986 1.081.25 2.107 1.313 1.09 1.547.964 1.547-.839 0-2.391-.013-2.4-1.797-1.268m110 0c-1.037.657-.986 1.081.25 2.107 1.313 1.09 1.547.964 1.547-.839 0-2.391-.013-2.4-1.797-1.268m36.38.012c-.431.697-.513 1.537-.183 1.867.895.895 1.871-.421 1.387-1.871-.338-1.016-.574-1.016-1.204.004m62.417.166c-1.333.86-1.333 1.076 0 1.936 1.538.992 2.494-.017 1.833-1.936-.215-.624-.866-.624-1.833 0m93 0c-1.333.86-1.333 1.076 0 1.936 1.538.992 2.494-.017 1.833-1.936-.215-.624-.866-.624-1.833 0m-85.41 6.595c-.683 1.779.849 3.331 3.315 3.358 1.059.011.938-.54-.489-2.235-1.042-1.238-1.956-2.382-2.032-2.543-.075-.161-.433.478-.794 1.42m-316.133.443c-.364.589-1.628 1.46-2.809 1.937-2.026.817-1.998.87.485.93 1.824.044 2.794-.552 3.157-1.937.573-2.19.202-2.604-.833-.93M94 470.847c0 .466-1.013 1.336-2.25 1.933-2.21 1.065-2.201 1.086.5 1.152 2.106.052 2.75-.4 2.75-1.932 0-1.1-.225-2-.5-2s-.5.381-.5.847m17-.166c0 .557-1.013 1.502-2.25 2.099l-2.25 1.085 2.281.067c2.208.066 4.111-2.373 2.843-3.642-.343-.343-.624-.167-.624.391m48.457.389c-.364.589-1.628 1.46-2.809 1.937-2.026.817-1.998.87.485.93 1.824.044 2.794-.552 3.157-1.937.573-2.19.202-2.604-.833-.93m108.682 1.016c-2.216 1.796-2.237 1.914-.357 1.914 1.102 0 2.288-.739 2.635-1.643.91-2.372.39-2.434-2.278-.271m36-.053L301.778 474h2.611c1.944 0 2.611-.511 2.611-2 0-2.411.075-2.412-2.861.033m-243.501.467c-.347.905-.005 1.5.862 1.5s1.209-.595.862-1.5c-.317-.825-.705-1.5-.862-1.5-.157 0-.545.675-.862 1.5m74.362 0c0 .825.675 1.5 1.5 1.5s1.5-.675 1.5-1.5-.675-1.5-1.5-1.5-1.5.675-1.5 1.5m28.638 0c-.347.905-.005 1.5.862 1.5s1.209-.595.862-1.5c-.317-.825-.705-1.5-.862-1.5-.157 0-.545.675-.862 1.5m165.905-.569c-.317.512-.118 1.213.441 1.559 1.193.737 3.016-.199 3.016-1.549 0-1.217-2.707-1.225-3.457-.01m37.016.601c-1.897 1.435-1.891 1.468.25 1.468 1.281 0 2.191-.623 2.191-1.5 0-1.81-.007-1.809-2.441.032m93 0c-1.897 1.435-1.891 1.468.25 1.468 1.281 0 2.191-.623 2.191-1.5 0-1.81-.007-1.809-2.441.032m26.135-.893c-.799.799.104 2.361 1.365 2.361.518 0 .941-.675.941-1.5 0-1.546-1.18-1.987-2.306-.861" fill-rule="evenodd"/>
 </svg>