<?xml version="1.0" standalone="no"?>
<!DOCTYPE svg PUBLIC "-//W3C//DTD SVG 20010904//EN"
 "http://www.w3.org/TR/2001/REC-SVG-20010904/DTD/svg10.dtd">
<svg version="1.0" xmlns="http://www.w3.org/2000/svg"
 width="900.000000pt" height="294.000000pt" viewBox="0 0 900.000000 294.000000"
 preserveAspectRatio="xMidYMid meet">
<metadata>
Created by potrace 1.10, written by Peter Selinger 2001-2011
</metadata>
<defs>
  <linearGradient id="gradient" x1="0%" y1="0%" x2="100%" y2="0%">
    <stop offset="0%" style="stop-color:#034bb0;stop-opacity:1" />
    <stop offset="100%" style="stop-color:#cb6be6;stop-opacity:1" />
  </linearGradient>
</defs>
<g transform="translate(0.000000,294.000000) scale(0.100000,-0.100000)" fill="url(#gradient)" stroke="none">
>
<path d="M3967 2269 c-15 -12 -53 -59 -83 -105 -50 -75 -56 -89 -56 -135 1
-31 -6 -65 -16 -83 -14 -25 -17 -59 -17 -166 -1 -112 -5 -146 -23 -199 -12
-34 -25 -85 -28 -112 -4 -27 -10 -49 -13 -49 -22 0 -42 33 -55 90 -8 36 -23
97 -34 135 -10 39 -25 96 -31 127 -8 39 -23 71 -47 99 -33 39 -34 44 -34 124
0 74 -3 87 -25 113 -29 34 -67 47 -95 32 -20 -11 -28 -25 -113 -186 -24 -45
-55 -96 -69 -113 -27 -32 -29 -38 -49 -161 -7 -41 -25 -102 -42 -135 -16 -33
-33 -69 -37 -80 -39 -97 -89 -169 -107 -151 -5 4 -11 51 -15 104 -29 414 -33
444 -69 512 -11 20 -19 55 -19 83 0 63 -31 124 -68 134 -64 17 -82 -1 -146
-150 -10 -25 -32 -47 -63 -67 -27 -16 -53 -33 -58 -38 -14 -11 -40 -96 -60
-197 -9 -44 -23 -105 -30 -135 -8 -30 -16 -97 -19 -148 -3 -65 -10 -102 -22
-120 l-17 -26 -17 22 c-10 12 -27 54 -39 94 -11 40 -26 87 -32 103 -24 65 -39
154 -39 243 0 90 -1 95 -29 123 -16 16 -38 29 -49 29 -16 0 -20 10 -25 66 -4
36 -4 86 0 110 5 38 2 48 -17 69 -20 21 -33 25 -85 25 -89 0 -105 -20 -105
-125 l0 -79 -56 -53 c-62 -57 -62 -59 -88 -230 -8 -50 -19 -100 -25 -111 -6
-12 -11 -65 -12 -119 -1 -54 -4 -109 -8 -123 -10 -36 -49 -38 -84 -3 -39 38
-147 190 -147 207 0 7 -7 30 -15 49 -8 20 -15 49 -15 65 0 52 -38 120 -81 147
-32 21 -39 31 -39 58 0 17 -7 45 -15 61 -8 15 -15 38 -15 50 0 27 -33 76 -62
92 -59 33 -131 -8 -143 -82 -6 -37 -27 -100 -46 -136 -5 -10 -9 -26 -9 -36 0
-10 -10 -32 -22 -49 -22 -28 -54 -94 -94 -191 -15 -37 -16 -49 -5 -90 7 -26
16 -66 21 -90 5 -24 20 -64 33 -90 13 -26 27 -69 30 -97 8 -56 17 -85 65 -210
31 -83 34 -98 34 -199 -1 -59 -3 -111 -7 -114 -6 -7 -90 -19 -213 -31 -92 -9
-94 -11 -140 -53 -56 -52 -132 -109 -222 -164 -114 -71 -290 -164 -338 -178
-12 -4 -37 -27 -56 -51 -26 -34 -110 -116 -175 -171 -2 -2 2000 -4 4450 -4
l4454 0 -62 40 c-34 22 -66 40 -71 40 -5 0 -89 40 -185 90 -207 105 -211 106
-510 116 -114 4 -210 10 -212 14 -3 4 -6 95 -7 201 -1 153 2 205 14 244 9 28
23 76 33 108 11 40 23 61 38 68 22 10 22 14 21 182 -1 179 -12 456 -20 494 -2
12 -27 46 -55 77 -38 41 -54 69 -64 108 -53 215 -77 280 -111 309 -19 15 -71
14 -90 -2 -40 -33 -54 -85 -54 -201 0 -126 -9 -152 -57 -183 -37 -23 -67 -75
-52 -89 25 -26 1 -199 -57 -414 -7 -23 -38 -8 -48 23 -20 65 -52 142 -73 177
-13 21 -23 43 -23 49 0 6 -6 32 -14 58 -8 25 -22 72 -32 104 -13 44 -27 65
-55 88 -28 22 -40 40 -44 67 -16 97 -70 280 -91 303 -28 31 -75 25 -117 -16
-21 -20 -37 -45 -37 -56 0 -11 -5 -29 -10 -40 -6 -10 -15 -38 -20 -61 -15 -74
-51 -192 -66 -223 -8 -16 -18 -50 -21 -75 -3 -25 -18 -72 -32 -105 -15 -33
-35 -77 -44 -98 -9 -21 -17 -53 -17 -72 0 -53 -29 -46 -77 18 -65 86 -98 161
-108 242 -11 83 -24 114 -57 131 -26 13 -29 20 -23 42 13 53 0 114 -40 183
-13 24 -25 52 -25 63 0 10 -9 33 -20 51 -16 25 -29 34 -61 39 -55 9 -78 -8
-123 -84 -32 -54 -36 -69 -36 -131 0 -63 -3 -74 -26 -99 -27 -28 -57 -97 -48
-111 2 -4 -1 -41 -7 -83 -9 -58 -22 -93 -55 -153 -24 -42 -44 -80 -44 -83 0
-4 -10 -19 -21 -34 l-21 -27 -24 22 c-13 12 -24 31 -24 41 0 25 -36 131 -66
194 -30 64 -39 106 -26 130 12 22 -15 93 -71 190 -19 32 -38 78 -41 101 -3 24
-25 75 -49 115 -23 40 -47 84 -53 98 -7 14 -24 40 -39 58 -23 28 -33 32 -74
32 -33 0 -52 -5 -63 -17 -21 -26 -58 -101 -58 -119 0 -9 -10 -48 -22 -87 -15
-50 -32 -83 -60 -113 -29 -32 -38 -49 -38 -77 0 -19 -5 -59 -12 -87 -9 -40 -9
-56 0 -71 24 -39 1 -189 -29 -189 -11 0 -54 91 -67 145 -6 22 -13 80 -17 129
-10 123 -37 164 -126 193 -60 20 -68 33 -40 69 25 32 26 43 3 114 -23 74 -48
107 -83 115 -38 9 -71 -12 -93 -60 -17 -35 -18 -85 -4 -184 2 -21 -3 -26 -32
-34 -67 -17 -86 -28 -103 -56 -20 -34 -43 -104 -52 -156 -9 -50 -32 -131 -49
-170 -24 -54 -44 -109 -63 -175 -17 -56 -23 -65 -43 -65 -20 0 -26 9 -42 60
-10 33 -29 94 -43 135 -18 58 -25 102 -27 196 -4 109 -7 126 -28 157 -14 20
-35 41 -47 46 -20 9 -23 18 -23 64 0 31 -6 61 -15 73 -8 10 -15 26 -15 35 0
37 -43 111 -73 130 -40 24 -55 24 -90 -2z m658 -548 c22 -67 16 -120 -20 -196
-27 -57 -27 -61 -22 -199 4 -117 9 -153 30 -211 47 -132 58 -208 55 -365 l-3
-145 -83 3 c-47 2 -125 -3 -180 -13 -71 -12 -118 -14 -177 -8 l-80 8 -1 140
c0 141 8 220 28 285 6 19 15 51 19 70 4 19 19 67 34 105 23 61 26 81 22 150
-3 44 -8 88 -12 98 -7 18 2 22 21 9 20 -13 66 -125 73 -176 9 -64 16 -76 45
-76 36 0 60 33 49 67 -14 41 5 112 61 223 27 52 59 136 73 185 34 124 33 120
42 109 5 -5 16 -33 26 -63z m378 -8 c14 -96 38 -175 75 -253 58 -122 64 -151
45 -212 -19 -57 -10 -83 28 -83 16 0 25 7 29 25 4 16 14 26 28 28 27 4 42 -29
42 -91 0 -23 5 -62 11 -87 11 -45 20 -424 11 -447 -7 -20 -311 -18 -338 1 -17
13 -19 30 -22 178 -4 165 8 266 43 358 33 87 38 127 25 195 -7 36 -10 84 -7
106 3 21 -1 65 -9 97 -18 75 -18 154 1 198 17 42 30 38 38 -13z m-2419 -52 c6
-8 -11 -99 -37 -201 -9 -35 -13 -101 -12 -180 2 -133 -2 -120 72 -279 22 -47
26 -68 27 -170 l1 -116 -95 -18 c-52 -10 -120 -25 -150 -33 -35 -10 -87 -14
-145 -12 l-90 3 -9 75 c-11 96 18 303 49 350 14 20 9 333 -6 377 -7 21 -8 57
-4 94 7 58 8 60 26 43 10 -9 21 -37 24 -63 4 -26 30 -92 59 -151 30 -58 57
-121 61 -140 10 -49 19 -57 61 -52 30 4 38 10 50 38 8 18 14 61 14 95 0 58 14
124 46 212 8 20 14 54 14 75 0 47 28 80 44 53z m3083 -18 c11 -16 27 -55 37
-88 17 -56 110 -226 128 -233 14 -6 9 -77 -8 -100 -22 -32 -10 -57 37 -72 38
-13 43 -12 55 4 9 13 10 24 3 37 -13 25 9 73 60 129 38 41 74 104 101 175 5
14 14 23 20 20 14 -9 12 -76 -5 -170 -23 -129 -19 -264 11 -370 46 -163 55
-209 64 -335 10 -149 5 -161 -56 -135 -37 15 -253 46 -422 60 -96 8 -99 11
-101 100 -1 33 -6 83 -12 110 -9 40 -8 74 5 162 9 62 23 131 31 154 8 23 15
51 15 62 0 11 8 29 17 39 15 17 15 23 0 91 -10 39 -17 87 -17 105 0 18 -6 48
-14 66 -8 19 -17 63 -21 98 -6 55 -4 66 15 91 27 34 34 34 57 0z m-3757 -70
c0 -43 -6 -95 -14 -118 -20 -58 -36 -153 -36 -213 0 -56 14 -118 54 -233 22
-64 26 -93 26 -187 0 -150 4 -148 -213 -145 -119 2 -165 -1 -185 -11 -15 -8
-52 -15 -82 -17 l-55 -4 -3 55 c-3 59 19 202 46 290 22 73 21 306 -2 403 -31
131 -10 174 38 75 46 -99 203 -260 273 -282 12 -4 31 -2 42 3 16 9 20 25 24
108 5 103 29 263 47 319 7 19 18 34 26 34 11 0 14 -17 14 -77z m1348 -170 c-3
-211 -1 -242 15 -272 9 -19 17 -38 17 -44 0 -5 6 -23 14 -40 49 -108 54 -145
39 -346 -7 -108 -14 -115 -82 -81 -41 21 -61 24 -177 24 -111 1 -135 4 -151
19 -11 9 -30 17 -44 17 -49 0 -54 11 -51 117 2 54 10 121 18 148 8 28 22 75
31 105 8 30 20 65 24 78 5 13 9 35 9 50 0 43 13 55 49 47 35 -7 65 11 82 50 5
11 18 34 29 50 11 17 23 37 27 45 5 8 25 40 45 72 38 57 66 120 75 171 3 15
12 27 20 27 12 0 13 -37 11 -237z m2012 120 c0 -17 -4 -35 -10 -38 -5 -3 -10
-16 -10 -28 -1 -49 -37 -172 -51 -172 -17 0 -26 89 -11 108 5 7 12 26 16 42 4
17 13 44 21 60 8 17 17 43 20 59 5 23 8 27 16 15 5 -7 9 -28 9 -46z m-4152 -6
c3 -40 -13 -165 -23 -175 -12 -13 -26 18 -36 79 -9 53 -8 70 6 102 21 51 49
47 53 -6z m5352 -60 c30 -80 44 -101 104 -164 67 -70 69 -74 56 -99 -19 -35
-3 -59 41 -59 28 0 35 4 37 23 2 13 -4 34 -12 47 -17 25 -22 85 -8 85 14 0 96
134 107 175 13 51 41 93 54 80 15 -15 17 -275 3 -302 -14 -25 -16 -69 -3 -77
4 -3 11 -36 13 -73 4 -45 25 -126 62 -237 31 -93 56 -188 56 -210 1 -23 7 -59
15 -81 8 -22 15 -60 14 -85 0 -46 -21 -158 -32 -177 -9 -14 -104 -23 -137 -12
-14 4 -50 17 -80 29 -30 12 -84 28 -120 35 -82 17 -97 23 -138 53 -18 14 -51
27 -77 30 -25 2 -48 9 -52 15 -3 6 -7 96 -8 201 -3 178 -1 195 20 251 13 33
30 82 39 109 19 57 21 191 5 233 -25 61 -38 182 -27 244 5 32 15 59 22 59 6 0
27 -42 46 -93z m-2826 2 c23 -45 36 -85 36 -109 0 -21 4 -41 9 -44 13 -8 51
56 51 85 0 28 54 93 73 86 8 -2 14 -45 17 -143 3 -76 11 -157 17 -179 33 -118
42 -190 46 -368 3 -138 0 -190 -8 -197 -19 -16 -262 -1 -277 17 -17 20 -26
257 -19 503 3 113 4 253 2 313 -2 66 1 107 7 107 6 0 26 -32 46 -71z m3574 6
c18 -35 32 -74 32 -85 0 -22 42 -105 92 -179 30 -45 36 -79 23 -149 -9 -53 5
-72 51 -72 43 0 50 14 29 60 l-17 38 48 101 c27 55 54 99 59 97 17 -5 17 -56
0 -83 -25 -37 -30 -165 -16 -341 7 -81 13 -239 15 -350 2 -198 2 -204 -18
-211 -25 -8 -229 3 -300 17 -85 16 -96 49 -96 298 0 150 4 172 74 357 37 97
36 175 -4 252 -31 61 -54 169 -46 214 3 14 7 43 11 64 3 20 12 37 19 37 7 0
27 -29 44 -65z m692 -140 c4 -35 0 -45 -15 -45 -10 0 -15 10 -15 33 0 51 25
61 30 12z m-2460 -362 c0 -68 7 -144 15 -180 13 -54 13 -72 1 -128 -8 -37 -16
-69 -19 -72 -27 -26 -59 69 -52 152 2 28 8 100 14 160 5 61 10 127 10 148 1
26 5 37 16 37 12 0 15 -20 15 -117z m2294 -321 c10 -236 1 -317 -37 -332 -45
-17 -49 7 -42 230 8 236 29 350 59 320 7 -7 14 -88 20 -218z m-4264 118 c0
-47 -3 -60 -15 -60 -18 0 -21 70 -5 101 17 30 20 23 20 -41z"/>
</g>
</svg>
