<?xml version="1.0" standalone="no"?>
<!DOCTYPE svg PUBLIC "-//W3C//DTD SVG 20010904//EN"
 "http://www.w3.org/TR/2001/REC-SVG-20010904/DTD/svg10.dtd">
<svg version="1.0" xmlns="http://www.w3.org/2000/svg"
 width="900.000000pt" height="900.000000pt" viewBox="0 0 900.000000 900.000000"
 preserveAspectRatio="xMidYMid meet">
<metadata>
Created by potrace 1.10, written by Peter Selinger 2001-2011
</metadata>
<g transform="translate(0.000000,900.000000) scale(0.100000,-0.100000)"
fill="#ebb061" stroke="#ebb061" stroke-width="10px">
<path d="M4895 8384 c-11 -3 -29 -9 -40 -14 -11 -5 -32 -11 -47 -14 -15 -4
-39 -22 -54 -41 -52 -68 -31 -153 71 -280 53 -67 66 -105 64 -197 -1 -74 -23
-177 -50 -243 -5 -11 -11 -49 -13 -84 -5 -61 -4 -65 32 -112 60 -77 104 -90
298 -89 87 1 174 4 192 7 61 10 32 23 -52 23 -145 0 -265 37 -321 100 -16 18
-19 34 -17 82 1 33 7 68 12 78 6 10 10 28 10 39 0 12 6 21 16 21 11 0 15 8 14
28 -3 46 -1 54 15 48 24 -9 30 39 11 87 -9 24 -16 48 -16 56 0 16 -68 159 -80
166 -5 3 -12 26 -16 51 -3 25 -13 48 -20 51 -8 3 -14 11 -14 18 0 7 -11 16
-25 19 -32 8 -33 41 -2 67 29 24 59 24 82 -1 22 -24 35 -26 35 -5 0 11 12 15
45 15 40 0 75 -12 157 -56 14 -8 31 -14 37 -14 16 0 121 -71 121 -81 0 -5 5
-9 11 -9 20 0 98 -69 216 -189 62 -63 116 -111 120 -108 3 4 -1 15 -10 25 -10
10 -17 22 -17 26 0 18 -161 219 -235 293 -88 88 -220 183 -282 203 -21 7 -43
16 -49 21 -12 10 -170 20 -199 13z"/>
<path d="M6920 8370 c-8 -5 -25 -10 -38 -10 -55 0 -205 -104 -321 -220 -66
-67 -173 -192 -180 -211 -1 -6 -14 -22 -27 -36 -25 -27 -54 -79 -54 -96 0 -6
46 37 103 94 56 58 124 122 152 144 27 22 55 45 61 50 6 6 22 17 34 25 12 8
42 30 66 48 23 17 46 32 49 32 6 0 51 19 132 56 71 32 116 16 171 -64 22 -34
30 -92 12 -92 -6 0 -16 -12 -23 -27 -6 -16 -17 -32 -24 -36 -7 -4 -13 -13 -13
-19 0 -6 -13 -39 -30 -74 -27 -59 -29 -67 -23 -148 4 -54 11 -90 19 -97 8 -6
14 -19 14 -28 0 -9 7 -25 15 -35 10 -14 15 -45 15 -98 0 -71 -2 -79 -27 -103
-58 -54 -159 -85 -278 -85 -40 0 -76 -4 -79 -9 -16 -25 309 -29 380 -5 109 37
139 86 131 211 -2 46 -9 89 -14 96 -42 54 -60 248 -30 320 17 39 68 116 101
152 28 30 46 80 46 125 0 75 -34 114 -116 136 -62 16 -201 19 -224 4z m216
-115 c36 -56 -15 -89 -61 -39 l-26 28 23 18 c31 24 45 22 64 -7z"/>
<path d="M5633 8364 c-24 -11 -13 -30 28 -48 48 -21 89 -57 89 -78 0 -9 7 -21
15 -28 8 -7 15 -20 15 -29 0 -9 14 -43 30 -75 17 -32 30 -71 30 -86 0 -15 7
-41 15 -56 8 -16 15 -41 15 -55 0 -15 7 -46 15 -69 8 -23 15 -54 15 -69 0 -14
7 -35 15 -45 9 -12 15 -42 15 -75 0 -61 11 -88 30 -76 16 10 3 172 -16 200 -8
11 -14 44 -14 75 0 31 -4 60 -9 66 -9 8 -16 32 -42 142 -6 23 -14 42 -19 42
-5 0 -11 15 -15 33 -10 52 -66 154 -105 192 -34 33 -81 50 -107 39z"/>
<path d="M6276 8351 c-34 -22 -75 -71 -76 -88 0 -7 -6 -16 -13 -20 -7 -4 -21
-28 -31 -53 -9 -25 -24 -58 -32 -73 -8 -16 -14 -43 -14 -61 0 -17 -6 -40 -14
-51 -14 -21 -32 -88 -46 -173 -5 -29 -13 -58 -18 -65 -5 -7 -10 -54 -11 -104
-1 -74 1 -93 12 -93 9 0 16 15 20 43 15 112 36 210 46 220 6 6 11 31 11 55 0
24 6 56 14 70 8 15 22 56 32 92 9 36 23 75 31 87 7 12 13 30 13 39 0 10 7 24
15 33 9 9 29 35 45 58 22 31 40 45 70 53 41 11 53 33 24 44 -27 10 -48 7 -78
-13z"/>
<path d="M2740 8183 c-19 -2 -49 -10 -67 -18 -17 -8 -42 -15 -56 -15 -14 0
-28 -4 -32 -9 -3 -5 -18 -12 -34 -16 -16 -3 -35 -13 -42 -21 -6 -8 -22 -14
-35 -14 -13 0 -24 -4 -24 -9 0 -5 -12 -13 -28 -19 -15 -5 -61 -41 -102 -80
-84 -79 -140 -172 -140 -234 0 -42 12 -55 30 -33 7 8 21 15 31 15 11 0 19 4
19 9 0 5 10 13 23 17 12 3 41 19 65 35 24 16 46 29 49 29 8 0 110 46 155 70
20 11 48 20 62 20 13 0 37 6 53 14 33 17 151 46 185 46 13 0 30 6 36 13 9 8
66 13 192 15 149 3 184 1 211 -12 18 -9 40 -16 50 -16 23 0 141 -39 153 -51 6
-5 20 -9 33 -9 13 0 26 -7 29 -15 4 -8 11 -15 17 -15 19 0 112 -68 164 -119
58 -58 123 -151 123 -177 0 -10 7 -37 15 -59 20 -56 19 -143 -3 -184 -21 -43
-34 -45 -42 -6 -11 53 -41 97 -114 169 -72 72 -178 136 -223 136 -12 0 -40 9
-61 20 -72 38 -350 33 -407 -6 -11 -8 -35 -14 -55 -14 -19 0 -44 -7 -54 -15
-11 -8 -26 -15 -34 -15 -8 0 -42 -13 -76 -28 -69 -33 -119 -52 -156 -59 -14
-3 -29 -9 -35 -13 -5 -4 -27 -10 -47 -14 -20 -4 -50 -13 -65 -21 -18 -10 -58
-15 -110 -15 -52 0 -84 -4 -89 -12 -9 -14 63 -78 87 -78 9 0 19 -6 22 -13 2
-7 25 -23 51 -35 25 -13 48 -27 51 -33 4 -5 20 -9 37 -9 17 0 39 -7 48 -15 20
-18 90 -34 190 -44 41 -4 85 -13 97 -19 32 -18 228 -15 281 3 33 12 96 16 252
17 185 2 211 0 228 -15 10 -9 24 -17 31 -17 20 0 91 -60 91 -76 0 -11 -15 -14
-62 -14 -43 0 -67 -5 -80 -17 -17 -15 -19 -15 -38 2 -19 17 -21 17 -46 0 -14
-9 -43 -17 -63 -17 -25 0 -44 -7 -62 -24 -23 -22 -27 -23 -39 -10 -9 11 -17
13 -30 6 -10 -6 -30 -10 -43 -10 -14 0 -30 -7 -38 -16 -8 -10 -21 -13 -36 -9
-13 3 -32 1 -43 -5 -14 -8 -26 -8 -41 0 -14 8 -24 8 -33 1 -18 -15 -158 8
-173 28 -10 15 -14 14 -41 -1 -37 -22 -68 -23 -76 -3 -3 8 -14 15 -25 15 -10
0 -21 7 -25 15 -3 8 -17 15 -30 15 -14 0 -30 8 -35 18 -10 19 -71 42 -113 42
-33 0 -154 62 -198 101 -19 17 -60 55 -92 85 -46 45 -62 54 -92 54 -32 0 -36
-3 -41 -32 -3 -18 -2 -82 3 -141 8 -122 2 -149 -30 -120 -11 9 -29 38 -40 63
-11 25 -27 49 -34 53 -8 4 -14 14 -14 22 0 15 -90 93 -134 115 -16 8 -50 15
-76 14 -39 0 -52 -6 -77 -31 -17 -17 -40 -51 -52 -76 -20 -41 -22 -58 -18
-164 2 -65 8 -136 15 -158 6 -22 18 -76 28 -120 9 -43 23 -91 31 -105 7 -14
13 -35 13 -48 0 -27 42 -155 73 -222 82 -181 124 -247 203 -318 57 -52 120
-74 181 -65 28 5 34 2 44 -23 6 -16 17 -41 25 -56 8 -14 14 -35 14 -46 0 -21
2 -27 59 -142 17 -36 31 -69 31 -74 0 -5 14 -38 30 -73 17 -34 30 -68 30 -73
0 -6 4 -10 9 -10 5 0 13 -10 16 -22 6 -23 29 -75 48 -113 78 -150 111 -213
123 -226 8 -8 14 -23 14 -32 0 -9 4 -18 9 -21 5 -3 19 -24 30 -47 12 -23 28
-48 36 -56 8 -8 15 -23 15 -34 0 -10 4 -19 9 -19 5 0 13 -10 17 -22 4 -13 18
-39 33 -58 14 -19 31 -43 36 -52 38 -66 190 -272 249 -338 66 -74 244 -249
345 -340 52 -47 102 -92 111 -100 17 -16 34 -28 145 -105 39 -26 72 -51 75
-54 3 -3 28 -17 55 -30 28 -13 64 -34 82 -47 17 -13 37 -24 43 -24 7 0 24 -6
38 -14 15 -8 44 -18 65 -21 20 -3 37 -10 37 -15 0 -17 111 -32 179 -25 65 7
108 21 97 32 -3 3 -55 9 -116 13 -60 4 -115 12 -122 18 -7 6 -30 13 -51 17
-20 4 -40 11 -43 16 -3 5 -13 9 -23 9 -10 0 -24 7 -31 15 -7 8 -19 15 -27 15
-18 0 -195 105 -262 156 -86 65 -103 79 -220 180 -113 99 -338 323 -357 355
-5 9 -28 39 -52 65 -48 56 -51 60 -73 94 -9 14 -26 36 -38 49 -11 13 -21 28
-21 32 0 9 -60 100 -71 109 -4 3 -21 32 -39 65 -18 33 -38 67 -45 75 -6 8 -19
29 -27 45 -42 84 -63 121 -75 128 -7 4 -13 13 -13 19 0 10 -58 133 -80 168 -5
8 -25 50 -45 92 -19 42 -40 80 -45 83 -6 3 -10 14 -10 24 0 10 -6 31 -14 47
-7 16 -22 48 -32 72 -10 23 -21 42 -25 42 -5 0 -11 17 -15 37 -4 21 -13 44
-21 51 -7 7 -13 22 -13 32 0 10 -7 31 -15 46 -8 16 -15 36 -15 45 0 9 -7 19
-15 23 -10 3 -15 19 -15 44 0 54 -30 76 -73 54 -88 -44 -217 63 -306 253 -18
39 -41 87 -52 107 -10 20 -19 46 -19 56 0 11 -7 33 -15 48 -8 16 -15 39 -15
51 0 12 -4 25 -10 28 -5 3 -10 18 -10 33 0 15 -9 44 -20 65 -11 21 -20 56 -20
80 0 24 -7 58 -16 76 -12 24 -16 66 -17 174 -2 160 7 189 71 229 29 18 35 18
55 6 12 -8 33 -18 47 -22 30 -8 111 -102 146 -171 28 -55 69 -95 96 -95 10 0
29 18 43 40 29 45 32 95 10 155 -16 46 -19 111 -5 120 5 3 40 -25 78 -62 114
-112 196 -161 277 -165 68 -4 72 -30 11 -75 -42 -31 -80 -85 -68 -97 13 -14
35 -3 73 39 42 46 69 57 69 30 0 -8 -4 -15 -9 -15 -9 0 -31 -53 -31 -76 0 -8
9 -14 20 -14 11 0 20 6 20 13 0 18 59 77 76 77 18 0 18 -18 -1 -36 -19 -19
-20 -84 -2 -84 7 0 21 20 32 45 11 25 28 48 38 51 9 3 17 13 18 22 0 13 3 11
11 -5 9 -18 7 -32 -7 -63 -14 -32 -16 -43 -6 -53 15 -15 43 1 51 29 9 36 38
67 55 60 14 -5 14 -8 0 -35 -20 -39 -19 -77 1 -85 23 -9 34 2 34 34 0 16 5 32
11 35 5 4 14 18 20 32 15 40 30 17 23 -36 -4 -34 -2 -51 6 -56 15 -9 30 12 30
42 0 13 13 31 32 44 29 21 31 22 24 3 -17 -44 -18 -70 -1 -84 21 -17 33 -4 37
40 4 44 20 42 31 -4 8 -34 30 -52 48 -40 5 3 9 25 9 49 0 54 10 62 40 30 31
-33 40 -31 40 4 0 60 35 89 42 34 2 -18 10 -29 22 -31 24 -5 36 14 36 56 0 49
24 35 28 -16 3 -45 25 -58 35 -22 4 15 14 20 41 20 26 0 38 6 47 23 16 30 44
48 104 69 60 22 99 23 119 3 13 -14 76 -22 76 -10 0 3 -14 28 -32 57 -40 65
-98 122 -140 138 -18 6 -49 19 -69 27 -40 16 -238 13 -379 -6 -116 -15 -401
-14 -452 3 -24 8 -66 16 -95 19 -28 3 -60 10 -70 16 -36 20 -149 68 -175 75
-18 4 -28 13 -28 25 0 15 10 20 55 26 31 3 68 13 83 21 15 7 41 14 58 14 18 0
45 7 60 15 16 8 37 15 46 15 9 0 20 5 23 10 3 6 14 10 24 10 10 0 30 9 44 20
14 11 36 20 50 20 13 0 30 7 37 15 7 8 25 15 41 15 15 0 30 4 33 9 3 5 21 12
40 15 19 4 48 13 65 22 40 20 322 17 329 -3 2 -7 13 -13 25 -13 12 0 35 -7 51
-15 15 -8 36 -15 46 -15 10 0 23 -7 30 -15 7 -8 18 -15 24 -15 30 0 165 -133
186 -183 6 -12 14 -29 19 -37 12 -21 31 -83 31 -104 0 -28 29 -31 48 -5 51 72
55 89 55 219 0 97 -4 134 -17 164 -26 58 -78 135 -122 181 -51 53 -149 125
-169 125 -9 0 -18 7 -21 15 -4 8 -10 15 -16 15 -8 0 -33 10 -123 50 -11 5 -36
11 -55 13 -19 3 -55 13 -80 23 -61 24 -394 25 -451 1 -20 -8 -64 -18 -98 -22
-35 -4 -75 -13 -89 -21 -15 -8 -35 -14 -45 -14 -9 0 -25 -4 -35 -9 -43 -22
-110 -51 -117 -51 -17 0 -190 -91 -208 -109 -16 -16 -37 -13 -37 5 0 35 125
169 190 203 19 10 61 32 93 50 31 17 68 31 80 31 13 0 27 4 33 9 8 9 90 28
197 46 29 5 37 10 35 23 -3 18 -54 24 -128 15z"/>
<path d="M3453 8184 c-7 -3 -13 -12 -13 -19 0 -16 8 -19 95 -35 39 -8 77 -19
86 -27 8 -7 30 -13 47 -13 17 0 33 -4 36 -9 4 -5 27 -20 54 -32 43 -21 140
-84 152 -98 3 -4 19 -17 35 -30 36 -27 125 -158 125 -182 0 -10 4 -20 9 -23 5
-4 12 -25 16 -49 4 -23 12 -48 19 -56 6 -8 14 -64 18 -125 4 -61 12 -147 18
-191 15 -114 9 -780 -7 -797 -7 -6 -13 -35 -13 -62 0 -28 -7 -63 -14 -78 -8
-16 -25 -57 -37 -93 -12 -36 -26 -65 -30 -65 -5 0 -9 -9 -9 -20 0 -12 -8 -33
-19 -48 -32 -46 -95 -165 -108 -202 -15 -44 -16 -111 -3 -145 16 -42 78 -95
112 -95 27 0 67 20 96 47 7 7 16 13 18 13 5 0 65 -41 74 -50 25 -27 66 -40
121 -40 52 0 68 5 108 31 25 17 50 38 54 45 12 20 61 17 81 -5 18 -20 14 -41
-6 -41 -28 0 -107 -47 -146 -87 -64 -67 -82 -112 -82 -208 0 -69 3 -85 20
-100 27 -25 32 -17 21 40 -7 35 -5 61 4 94 8 25 16 57 19 71 13 63 130 151
211 160 73 7 73 33 -1 88 -75 56 -102 55 -180 -2 -82 -60 -100 -63 -175 -24
-34 18 -63 38 -66 45 -3 6 -18 15 -35 18 -23 5 -38 2 -60 -15 -41 -30 -91 -30
-123 0 -21 20 -25 32 -25 83 0 48 6 69 29 106 15 26 32 57 35 69 4 12 12 22
17 22 5 0 9 9 9 19 0 11 7 26 15 35 22 21 75 143 75 171 0 13 6 30 13 37 15
16 47 150 47 198 0 20 7 63 16 95 18 67 16 176 -11 648 -14 263 -26 358 -51
414 -8 17 -14 40 -14 50 0 42 -73 159 -136 218 -54 51 -151 125 -162 125 -5 0
-15 7 -22 15 -7 8 -21 15 -31 15 -9 0 -24 7 -32 15 -8 7 -26 17 -41 21 -14 3
-29 10 -32 15 -3 5 -17 9 -32 9 -15 0 -37 6 -48 14 -21 15 -121 29 -141 20z"/>
<path d="M5035 8162 c-5 -4 -16 -17 -23 -30 -11 -20 -10 -25 10 -42 26 -21 38
-18 38 11 0 10 9 27 19 36 11 9 18 20 15 25 -6 10 -45 10 -59 0z"/>
<path d="M6867 8155 c-9 -8 -18 -15 -22 -15 -14 0 -97 -42 -92 -46 3 -3 26 -2
52 2 34 5 49 12 52 25 8 29 51 25 63 -6 5 -14 17 -25 28 -25 10 0 23 -5 30
-12 15 -15 25 9 20 53 -3 33 -4 33 -59 37 -41 2 -61 -2 -72 -13z"/>
<path d="M5215 8090 c3 -5 13 -10 21 -10 8 0 14 5 14 10 0 6 -9 10 -21 10 -11
0 -17 -4 -14 -10z"/>
<path d="M5258 8058 c-2 -15 -11 -24 -26 -26 -16 -2 -22 -9 -20 -20 4 -17 15
-19 53 -7 29 8 81 -41 64 -61 -9 -11 -8 -14 8 -14 10 0 33 -13 51 -30 18 -16
37 -30 41 -30 4 0 25 -17 47 -37 23 -21 62 -56 89 -78 82 -68 186 -178 183
-194 -5 -27 -26 -22 -74 19 -79 66 -90 75 -132 108 -22 18 -44 32 -49 32 -5 0
-32 20 -59 45 -51 47 -71 55 -80 31 -10 -27 14 -52 65 -65 31 -8 51 -19 53
-29 4 -20 -43 -72 -49 -54 -5 14 -39 16 -48 2 -3 -5 -31 -7 -62 -5 -58 5 -93
0 -93 -14 0 -5 45 -7 100 -6 55 1 103 -2 106 -6 3 -5 15 -9 27 -9 20 0 74 -5
88 -8 4 -1 9 -11 12 -22 4 -15 14 -20 40 -20 43 0 144 -45 157 -71 18 -32 -15
-34 -98 -5 -80 27 -127 32 -152 16 -8 -5 -10 -10 -5 -10 6 -1 -3 -8 -20 -17
-46 -25 -175 -26 -230 -3 -36 16 -49 17 -80 7 -33 -10 -39 -9 -51 8 -7 11 -20
27 -29 36 -15 15 -14 17 1 23 12 5 15 14 11 35 -6 29 16 61 41 61 7 0 12 14
12 30 0 21 -5 30 -16 30 -19 0 -53 -39 -54 -61 0 -9 -10 -23 -21 -31 -20 -13
-21 -19 -14 -86 7 -67 9 -72 31 -72 14 0 24 -6 24 -14 0 -19 22 -26 80 -26 30
0 52 -5 60 -15 16 -19 189 -22 207 -4 7 7 53 13 113 14 55 2 106 7 113 12 6 6
30 13 52 17 22 4 51 11 65 16 14 4 37 11 53 14 29 7 37 30 12 40 -8 3 -15 11
-15 17 0 36 -57 124 -127 195 -109 110 -249 237 -273 246 -11 4 -20 12 -20 18
0 5 -6 10 -14 10 -8 0 -16 4 -18 9 -5 15 -97 81 -112 81 -8 0 -16 -10 -18 -22z"/>
<path d="M6680 8060 c-6 -11 -26 -27 -45 -35 -19 -7 -35 -19 -35 -24 0 -6 -6
-11 -14 -11 -8 0 -16 -4 -18 -9 -1 -5 -28 -29 -59 -53 -149 -115 -323 -296
-336 -347 -3 -14 -11 -33 -18 -41 -20 -24 -28 -70 -13 -74 7 -2 31 -8 53 -14
22 -6 59 -15 83 -22 42 -11 53 -23 30 -34 -7 -4 -2 -3 12 1 14 4 67 7 118 7
73 -1 96 -5 111 -18 18 -16 30 -17 127 -7 60 6 113 16 118 21 6 6 25 10 44 10
45 0 94 31 117 73 16 31 16 36 2 68 -9 19 -17 43 -19 53 -2 11 -8 21 -13 23
-12 4 -35 -52 -35 -82 0 -25 -40 -84 -62 -91 -9 -3 -29 2 -43 12 -19 12 -28
14 -39 5 -15 -12 -34 -14 -139 -11 -53 2 -70 6 -77 20 -15 28 -98 36 -162 15
-29 -10 -57 -21 -63 -26 -12 -12 -52 -12 -59 0 -18 29 48 74 133 89 31 6 58
17 63 26 5 9 21 16 36 16 26 0 27 2 29 55 0 30 -3 55 -8 55 -25 0 -111 -64
-185 -138 -25 -24 -39 -32 -54 -27 -11 3 -20 12 -20 19 0 12 118 133 194 198
21 18 50 43 64 56 14 12 31 22 38 22 7 0 14 4 16 8 2 4 29 28 61 52 31 25 57
48 57 52 0 5 7 8 15 8 7 0 18 6 22 14 4 8 23 16 42 18 45 4 52 26 13 40 -17 7
-33 20 -35 30 -7 24 -34 23 -47 -2z"/>
<path d="M5056 8013 c-4 -11 -1 -22 8 -29 9 -6 16 -18 16 -27 0 -16 28 -37 49
-37 18 0 12 49 -8 68 -54 48 -56 49 -65 25z"/>
<path d="M6876 8003 c-3 -3 -6 -18 -6 -33 0 -21 -8 -31 -37 -45 -21 -10 -46
-22 -55 -26 -10 -5 -25 -9 -33 -9 -8 0 -15 -4 -15 -9 0 -5 11 -8 25 -8 14 0
34 -8 44 -17 9 -9 25 -16 34 -16 19 0 21 -8 18 -62 -2 -24 2 -38 9 -38 9 0 11
23 9 83 -4 74 -2 82 14 79 14 -2 17 5 17 47 0 47 -9 68 -24 54z"/>
<path d="M5216 7891 c-6 -10 20 -35 47 -44 10 -4 17 -17 17 -32 0 -19 5 -25
21 -25 11 0 27 7 35 15 16 16 11 35 -9 35 -7 0 -28 13 -47 30 -36 30 -55 36
-64 21z"/>
<path d="M5150 7875 c-10 -12 -10 -15 4 -15 9 0 16 7 16 15 0 8 -2 15 -4 15
-2 0 -9 -7 -16 -15z"/>
<path d="M6663 7833 c-13 -2 -23 -11 -23 -19 0 -8 -9 -14 -20 -14 -20 0 -110
-58 -110 -72 0 -4 11 -10 25 -14 20 -5 40 5 100 51 91 68 96 81 28 68z"/>
<path d="M6853 7660 c-34 -31 -34 -34 8 -44 32 -7 52 12 47 45 -4 32 -19 32
-55 -1z"/>
<path d="M6686 7655 c-3 -8 -12 -15 -21 -15 -8 0 -15 -5 -15 -11 0 -7 9 -9 23
-5 12 3 30 6 40 6 15 0 15 3 5 20 -15 24 -24 25 -32 5z"/>
<path d="M6550 7641 c-12 -8 -12 -13 -2 -23 14 -14 67 0 64 17 -2 14 -44 17
-62 6z"/>
<path d="M5356 7531 c-8 -12 60 -24 95 -16 16 4 27 11 23 16 -7 12 -111 12
-118 0z"/>
<path d="M6505 7530 c-10 -15 -1 -22 27 -21 234 9 318 15 288 21 -68 12 -308
12 -315 0z"/>
<path d="M5970 7515 c-15 -18 -4 -71 17 -79 9 -4 16 -5 17 -4 1 2 10 13 20 25
18 21 18 24 2 48 -19 28 -38 32 -56 10z"/>
<path d="M5902 7446 c-6 -14 -18 -26 -27 -26 -8 0 -15 -9 -15 -20 0 -13 -12
-25 -36 -35 -38 -16 -42 -38 -6 -43 11 -2 24 -12 27 -23 4 -10 13 -19 21 -19
10 0 14 -15 15 -57 l2 -58 6 50 c4 28 12 66 18 85 25 77 30 118 19 145 l-12
28 -12 -27z"/>
<path d="M6057 7444 c-9 -9 4 -67 19 -84 7 -8 14 -42 16 -75 l3 -60 24 41 c14
23 37 46 54 52 37 14 34 46 -6 50 -18 2 -31 11 -37 26 -4 12 -20 30 -34 39
-28 19 -30 20 -39 11z"/>
<path d="M5983 7393 c-9 -3 -13 -29 -13 -79 0 -52 -5 -82 -16 -100 -17 -24
-16 -103 1 -474 2 -36 -2 -75 -8 -87 -7 -17 -7 -30 1 -48 7 -14 12 -43 12 -65
0 -39 23 -74 44 -67 23 7 29 100 30 432 1 295 -1 340 -14 341 -8 1 -19 2 -24
3 -4 0 -1 12 8 26 31 47 15 131 -21 118z"/>
<path d="M5475 7360 c-3 -5 3 -10 15 -10 12 0 18 5 15 10 -3 6 -10 10 -15 10
-5 0 -12 -4 -15 -10z"/>
<path d="M6473 7353 c9 -2 25 -2 35 0 9 3 1 5 -18 5 -19 0 -27 -2 -17 -5z"/>
<path d="M5591 7279 c-41 -5 -79 -13 -85 -19 -5 -5 -16 -10 -23 -10 -19 0
-113 -43 -113 -51 0 -4 -13 -10 -30 -14 -16 -4 -32 -10 -35 -15 -3 -4 -24 -18
-47 -30 -23 -12 -56 -35 -72 -51 -16 -16 -33 -29 -37 -29 -4 0 -16 -16 -28
-35 -16 -28 -19 -43 -13 -72 10 -49 29 -53 38 -9 3 20 11 36 16 36 6 0 7 13 3
31 -5 23 -4 30 5 24 13 -8 112 38 131 61 6 8 18 14 25 14 8 0 23 5 34 12 16
11 23 8 48 -15 28 -27 52 -35 52 -18 0 6 -4 13 -10 16 -26 16 0 29 77 39 12 1
28 7 35 13 23 18 80 43 98 43 10 0 23 7 30 15 15 18 57 20 63 3 2 -7 0 -26 -6
-41 -6 -20 -6 -32 2 -40 13 -13 15 -77 2 -77 -9 0 -86 -115 -116 -175 -11 -22
-28 -52 -38 -67 -15 -22 -16 -31 -7 -49 10 -17 9 -23 -1 -30 -7 -4 -10 -11 -6
-15 16 -16 41 27 44 75 3 49 34 101 62 101 6 0 11 11 11 25 0 20 5 25 25 25
13 0 29 8 34 18 9 15 10 14 11 -8 0 -14 3 -36 7 -48 9 -34 23 -7 23 44 0 25 6
47 15 54 12 10 15 37 15 119 0 99 -2 109 -22 128 -29 26 -113 34 -217 22z"/>
<path d="M6233 7278 c-50 -9 -53 -11 -54 -41 -6 -144 7 -321 22 -311 6 3 7 14
4 24 -3 10 -1 21 4 25 6 3 13 -4 16 -17 4 -13 22 -31 42 -41 32 -16 38 -16 51
-3 13 12 12 17 -7 37 -11 12 -24 32 -27 43 -4 11 -20 33 -35 49 -32 32 -33 35
-19 71 8 23 12 24 40 15 16 -6 30 -17 30 -24 0 -12 18 -34 88 -108 16 -17 17
-17 24 3 11 29 35 25 67 -11 22 -24 34 -29 50 -24 30 9 22 25 -22 48 -20 10
-37 23 -37 28 0 5 -10 14 -22 19 -34 15 -62 33 -71 48 -4 6 -16 12 -25 12 -30
0 -96 39 -110 65 -12 23 -11 26 13 37 20 9 28 8 43 -5 10 -10 25 -17 33 -17 9
0 24 -7 35 -15 10 -8 29 -15 42 -15 12 0 22 -3 22 -8 0 -7 30 -25 63 -38 9 -3
17 -12 17 -19 0 -17 61 -26 79 -12 19 16 81 9 117 -14 17 -10 41 -19 53 -19
12 0 24 -7 27 -15 4 -8 15 -15 25 -15 11 0 20 -8 21 -17 0 -10 2 -22 3 -28 2
-5 3 -16 4 -22 0 -7 10 -13 21 -13 12 0 22 -9 26 -24 8 -32 -3 -48 -29 -44
-19 3 -23 -3 -27 -43 -5 -45 -32 -99 -49 -99 -12 0 -21 -92 -10 -110 5 -9 9
-10 9 -3 0 7 9 21 21 32 12 11 18 25 14 31 -4 6 2 20 14 31 12 11 21 31 21 44
0 13 5 27 11 30 5 4 9 21 7 38 -2 26 1 32 17 32 18 0 20 6 16 49 -2 27 -9 56
-17 63 -8 8 -14 21 -14 29 0 8 -4 14 -10 14 -5 0 -10 7 -10 15 0 19 -66 85
-86 85 -8 0 -17 7 -20 15 -4 8 -14 15 -24 15 -11 0 -21 4 -24 9 -6 10 -148 81
-162 81 -5 0 -22 7 -37 15 -16 8 -65 19 -110 25 -91 11 -82 11 -154 -2z"/>
<path d="M5270 7229 c-14 -4 -52 -15 -85 -24 -83 -22 -197 -79 -233 -116 -18
-19 -40 -59 -53 -101 -20 -61 -22 -74 -10 -111 6 -23 16 -60 22 -82 5 -22 16
-54 24 -72 8 -17 15 -37 15 -44 0 -6 11 -27 25 -45 14 -18 25 -35 25 -38 0
-26 246 -296 269 -296 5 0 28 -16 51 -35 23 -19 48 -35 55 -35 7 0 26 -7 41
-15 16 -8 54 -15 85 -15 54 0 57 1 105 53 28 28 70 81 94 117 23 36 55 83 70
105 15 22 31 51 35 64 4 13 17 40 28 59 51 87 66 173 51 299 -8 65 -19 61 -28
-9 -6 -49 -15 -75 -52 -151 -8 -16 -14 -37 -14 -47 0 -10 -4 -21 -8 -24 -4 -2
-26 -40 -47 -83 -42 -81 -168 -223 -199 -223 -9 0 -16 -7 -16 -15 0 -9 -9 -15
-25 -15 -26 0 -34 15 -12 23 6 3 -10 6 -37 6 -52 1 -93 21 -149 72 -17 16 -35
29 -39 29 -11 0 -58 54 -58 67 0 7 -6 16 -13 20 -8 4 -24 24 -38 43 -13 19
-27 37 -30 40 -12 11 -78 158 -93 209 -16 53 -13 161 5 161 4 0 11 10 15 22
14 45 155 157 217 172 15 3 27 11 27 16 0 6 9 10 19 10 11 0 23 5 26 10 7 12
-29 11 -65 -1z"/>
<path d="M6712 7208 c3 -7 13 -15 24 -17 25 -4 132 -76 164 -109 37 -39 48
-59 69 -125 10 -29 10 -49 0 -93 -7 -30 -16 -57 -21 -60 -4 -3 -8 -14 -8 -25
0 -19 -38 -98 -52 -109 -3 -3 -10 -18 -13 -33 -4 -15 -11 -27 -15 -27 -4 0
-19 -18 -34 -40 -39 -59 -166 -180 -189 -180 -5 0 -15 -7 -23 -15 -9 -8 -32
-16 -52 -16 -20 -1 -29 -3 -19 -6 32 -8 17 -23 -23 -23 -29 0 -40 4 -40 15 0
9 -9 15 -24 15 -35 0 -124 90 -183 185 -30 47 -53 95 -53 108 0 8 -7 20 -15
27 -8 7 -15 24 -15 39 0 14 -7 35 -15 45 -8 11 -15 30 -15 42 0 12 -9 32 -19
45 l-20 24 -15 -37 c-19 -44 -20 -74 -5 -84 11 -6 8 -40 -7 -77 -6 -15 -3 -18
17 -15 19 2 25 -4 40 -44 58 -161 194 -363 271 -404 35 -18 109 -18 134 1 10
8 28 15 39 15 28 0 146 86 224 161 65 64 191 222 191 239 0 6 11 28 25 49 28
45 65 181 65 240 0 60 -27 131 -66 172 -67 69 -339 168 -322 117z"/>
<path d="M5675 7140 c-4 -6 -21 -17 -38 -25 -102 -48 -131 -81 -91 -103 19
-10 11 -32 -12 -32 -8 0 -14 -7 -14 -16 0 -9 7 -14 18 -12 9 1 23 -1 30 -5 7
-5 12 -3 12 7 0 9 14 29 30 44 17 16 30 36 30 45 0 9 9 19 20 22 11 3 20 10
20 14 0 4 9 18 20 31 11 13 20 27 20 32 0 11 -38 10 -45 -2z"/>
<path d="M5883 7020 c0 -30 2 -43 4 -27 2 15 2 39 0 55 -2 15 -4 2 -4 -28z"/>
<path d="M6594 7054 c3 -9 6 -18 6 -20 0 -10 39 -3 49 9 14 18 4 27 -32 27
-22 0 -28 -4 -23 -16z"/>
<path d="M5330 7051 c0 -9 23 -21 41 -21 4 0 6 7 3 15 -7 16 -44 21 -44 6z"/>
<path d="M5470 7003 c-60 -42 -75 -63 -45 -63 9 0 18 6 21 14 3 8 19 20 35 26
16 7 29 19 29 26 0 19 -10 18 -40 -3z"/>
<path d="M6676 6994 c-4 -10 3 -26 19 -42 14 -13 25 -29 25 -33 0 -5 7 -9 15
-9 21 0 19 26 -3 47 -11 10 -22 26 -25 36 -8 21 -23 22 -31 1z"/>
<path d="M5247 6943 c-3 -15 -3 -30 -1 -32 6 -7 34 33 31 43 -7 22 -25 15 -30
-11z"/>
<path d="M6437 6963 c-10 -9 -9 -63 1 -63 15 0 32 24 32 47 0 22 -19 31 -33
16z"/>
<path d="M6110 6924 c0 -21 4 -33 10 -29 6 3 10 19 10 36 0 16 -4 29 -10 29
-5 0 -10 -16 -10 -36z"/>
<path d="M5380 6915 c0 -8 -6 -15 -13 -15 -16 0 -40 -38 -32 -50 11 -18 35
-10 45 15 5 14 17 28 25 31 22 9 18 34 -5 34 -11 0 -20 -7 -20 -15z"/>
<path d="M5532 6904 c4 -21 22 -23 26 -1 2 10 -3 17 -13 17 -10 0 -15 -6 -13
-16z"/>
<path d="M5104 6889 c-3 -6 -1 -16 5 -22 8 -8 11 -5 11 11 0 24 -5 28 -16 11z"/>
<path d="M6460 6871 c0 -10 7 -24 15 -31 8 -7 15 -21 15 -31 0 -11 5 -19 11
-19 16 0 4 80 -13 91 -20 13 -28 11 -28 -10z"/>
<path d="M6600 6882 c0 -19 59 -64 76 -58 15 6 14 10 -11 36 -27 28 -65 41
-65 22z"/>
<path d="M6334 6855 c-6 -24 23 -104 39 -105 9 0 9 4 -4 37 -7 15 -11 43 -10
61 3 37 -16 43 -25 7z"/>
<path d="M5136 6852 c-2 -4 -1 -14 4 -22 5 -8 6 -26 3 -39 -6 -23 -5 -23 21
-6 14 10 26 22 26 29 -1 15 -47 48 -54 38z"/>
<path d="M5726 6851 c-7 -11 20 -48 29 -39 9 8 -4 48 -15 48 -5 0 -11 -4 -14
-9z"/>
<path d="M6243 6832 c-13 -9 -2 -98 12 -95 11 3 17 91 6 97 -4 3 -12 2 -18 -2z"/>
<path d="M5441 6804 c-21 -27 -28 -54 -13 -54 15 1 52 39 52 54 0 27 -18 27
-39 0z"/>
<path d="M5716 6768 c-10 -39 -7 -70 7 -66 14 5 23 88 9 88 -5 0 -12 -10 -16
-22z"/>
<path d="M5181 6741 c-16 -30 -14 -64 4 -57 20 7 46 -32 39 -59 -4 -16 2 -26
19 -38 14 -9 27 -14 29 -12 11 11 -6 67 -23 76 -11 5 -19 18 -19 29 0 10 -4
22 -10 25 -5 3 -10 15 -10 25 0 27 -17 34 -29 11z"/>
<path d="M6420 6705 c-10 -12 -10 -19 -2 -27 7 -7 12 -20 12 -29 0 -9 10 -19
22 -22 24 -7 41 3 20 10 -6 3 -15 22 -18 44 -7 42 -15 47 -34 24z"/>
<path d="M5666 6702 c-6 -10 15 -62 25 -62 4 0 10 8 13 17 8 19 -28 61 -38 45z"/>
<path d="M6280 6690 c0 -11 4 -28 9 -38 5 -9 12 -25 15 -34 3 -10 10 -18 16
-18 13 0 13 51 0 84 -11 31 -40 35 -40 6z"/>
<path d="M6563 6703 c-22 -8 -15 -43 7 -43 20 0 26 16 12 36 -4 6 -13 9 -19 7z"/>
<path d="M5532 6659 c1 -12 9 -24 16 -27 9 -3 13 3 10 19 -1 12 -9 24 -16 27
-9 3 -13 -3 -10 -19z"/>
<path d="M6712 6588 c-12 -44 -6 -48 23 -14 30 35 31 46 5 46 -13 0 -22 -10
-28 -32z"/>
<path d="M6340 6580 c0 -4 7 -13 15 -20 8 -7 15 -21 15 -31 0 -11 6 -19 14
-19 8 0 16 -3 19 -7 2 -5 2 -2 1 4 -2 7 4 16 13 21 14 8 14 11 -4 29 -20 20
-73 37 -73 23z"/>
<path d="M5292 6550 c1 -17 6 -30 14 -30 7 0 25 -11 40 -25 35 -33 104 -65
139 -65 29 0 54 23 55 53 0 9 7 17 15 17 8 0 15 6 15 14 0 8 15 17 35 20 26 5
35 12 35 26 0 27 -60 29 -60 3 -1 -10 -21 -35 -46 -56 -45 -39 -45 -39 -78
-23 -19 9 -37 16 -42 16 -4 0 -22 18 -41 40 -44 51 -82 56 -81 10z"/>
<path d="M6095 6565 c4 -11 10 -45 12 -75 3 -30 11 -69 19 -87 8 -17 14 -38
14 -46 0 -9 4 -18 9 -22 5 -3 12 -18 16 -34 3 -16 13 -35 21 -42 8 -6 14 -22
14 -35 0 -13 4 -24 9 -24 5 0 19 -19 31 -42 12 -24 28 -47 36 -51 8 -4 14 -16
14 -25 0 -9 20 -39 45 -67 36 -40 45 -57 45 -87 0 -20 -7 -43 -15 -52 -8 -8
-15 -18 -15 -21 0 -8 -26 -69 -46 -108 -8 -16 -14 -34 -14 -40 0 -11 -79 -181
-101 -217 -5 -8 -21 -40 -35 -70 -15 -30 -30 -56 -35 -58 -5 -2 -9 -12 -9 -22
0 -11 -13 -38 -28 -62 -16 -24 -37 -59 -48 -78 -10 -19 -38 -65 -61 -101 -24
-37 -43 -69 -43 -73 0 -3 -20 -35 -45 -72 -25 -36 -45 -68 -45 -71 0 -3 -20
-30 -45 -59 -25 -28 -45 -55 -45 -59 0 -4 -21 -33 -47 -65 -27 -31 -55 -68
-63 -80 -8 -13 -26 -35 -40 -49 -14 -15 -50 -55 -80 -90 -76 -89 -345 -357
-405 -406 -28 -22 -54 -45 -60 -51 -16 -17 -117 -89 -160 -115 -22 -13 -46
-29 -53 -36 -7 -7 -21 -13 -31 -13 -9 0 -26 -7 -37 -15 -10 -8 -28 -15 -40
-15 -11 0 -24 -3 -28 -7 -4 -5 -24 -13 -44 -18 -26 -7 -38 -17 -40 -32 -4 -27
24 -37 51 -18 12 8 34 15 49 15 15 0 30 4 33 10 3 5 28 20 56 31 27 12 49 25
49 29 0 5 15 13 33 19 17 6 56 29 85 51 29 22 56 40 61 40 4 0 28 20 53 45 25
25 50 45 54 45 19 0 494 493 518 538 5 9 12 19 16 22 4 3 38 46 76 95 37 50
72 92 76 93 4 2 8 9 8 16 0 7 12 27 28 45 15 18 38 52 52 75 14 23 41 67 61
97 20 30 39 64 43 77 4 12 11 22 15 22 4 0 18 20 30 45 12 24 26 47 32 50 5 4
9 13 9 22 0 9 6 24 14 32 20 23 76 131 76 147 0 7 6 19 14 27 19 19 76 139 76
160 0 8 6 22 13 29 6 7 20 31 30 53 10 22 25 53 33 68 8 16 14 39 14 52 0 12
6 28 14 34 8 7 21 34 30 62 l17 50 -76 101 c-41 55 -75 105 -75 110 0 5 -11
24 -24 41 -14 18 -29 43 -35 57 -6 14 -15 32 -20 40 -28 47 -69 158 -76 207
-4 23 -16 49 -27 60 -21 18 -21 18 -13 -2z"/>
<path d="M6613 6534 c-13 -14 -23 -32 -23 -40 0 -22 -29 -28 -49 -10 -10 9
-25 16 -35 16 -10 0 -24 7 -32 15 -21 21 -31 19 -38 -7 -9 -36 -7 -51 7 -45 7
3 19 -4 25 -14 17 -27 57 -24 128 10 59 28 60 29 56 65 -5 43 -10 44 -39 10z"/>
<path d="M4555 5321 c-3 -5 -22 -15 -42 -22 -20 -6 -42 -16 -47 -21 -6 -4 -24
-18 -39 -29 -28 -21 -28 -21 -9 -43 11 -11 22 -30 24 -41 6 -33 78 -14 78 21
0 18 92 19 140 2 76 -26 183 -122 197 -176 7 -29 1 -35 -39 -36 -60 -2 -40
-21 29 -28 38 -4 88 -10 113 -13 59 -7 59 -7 104 2 21 5 39 13 39 18 0 6 -23
26 -50 45 -28 19 -91 72 -139 117 -110 101 -166 143 -224 167 -25 10 -59 25
-77 32 -37 16 -50 17 -58 5z"/>
<path d="M4076 5279 c-22 -11 -46 -27 -53 -35 -8 -8 -18 -14 -21 -14 -4 0 -18
-10 -32 -23 -14 -12 -54 -47 -90 -77 -35 -30 -76 -65 -90 -78 -14 -12 -63 -48
-108 -79 -46 -31 -86 -62 -89 -69 -3 -7 6 -24 20 -36 58 -54 83 -75 122 -103
61 -44 168 -123 180 -132 6 -4 28 -18 50 -29 22 -12 65 -35 95 -51 49 -26 100
-43 220 -73 62 -16 144 -20 195 -11 95 18 163 38 200 59 20 12 40 22 45 22 33
0 253 196 350 312 28 33 30 39 15 45 -10 3 -25 1 -34 -5 -9 -7 -23 -15 -31
-18 -8 -3 -31 -13 -50 -24 -20 -10 -62 -23 -94 -29 -31 -6 -61 -13 -67 -16
-15 -10 -10 -35 6 -35 8 0 15 -9 15 -19 0 -23 -21 -46 -58 -65 -15 -8 -36 -23
-46 -35 -11 -12 -24 -21 -31 -21 -7 0 -33 -11 -59 -25 -26 -14 -55 -25 -65
-25 -9 0 -21 -4 -26 -9 -9 -8 -115 -22 -155 -21 -68 2 -139 15 -160 29 -14 9
-52 25 -85 36 -56 18 -135 55 -212 101 -34 20 -43 50 -21 72 9 9 7 12 -10 12
-11 0 -57 16 -101 35 -43 19 -86 35 -95 35 -20 0 -31 19 -14 24 7 2 40 10 73
17 72 15 95 25 95 43 0 7 20 33 45 57 25 24 60 59 78 77 70 74 213 114 265 75
15 -11 35 -22 45 -26 12 -4 17 -17 17 -41 0 -23 -6 -39 -17 -45 -17 -10 -16
-10 2 -11 11 0 37 -3 58 -6 l37 -7 0 39 c0 22 -5 46 -10 54 -7 12 -11 10 -20
-10 -8 -20 -9 -11 -5 40 l6 65 -80 38 c-94 43 -147 48 -205 16z"/>
<path d="M4487 5103 c-4 -3 -7 -17 -7 -30 0 -19 5 -23 30 -23 25 0 30 4 30 24
0 28 -35 47 -53 29z"/>
<path d="M4045 4980 c-9 -15 -1 -23 21 -18 15 3 16 4 1 16 -11 9 -17 10 -22 2z"/>
<path d="M4423 4959 c-15 -16 -36 -29 -46 -29 -11 0 -21 -9 -24 -20 -5 -19
-14 -24 -40 -21 -7 1 -13 -3 -13 -9 0 -5 23 -10 53 -10 40 0 57 5 70 20 9 11
25 20 36 20 25 0 41 22 35 47 -9 34 -39 34 -71 2z"/>
<path d="M4205 4960 c-4 -6 13 -9 44 -7 68 4 78 17 13 17 -28 0 -54 -4 -57
-10z"/>
<path d="M4540 4950 c0 -17 51 -33 64 -20 8 8 7 14 -4 20 -20 13 -60 13 -60 0z"/>
<path d="M4665 4860 c-18 -7 -18 -8 7 -15 32 -8 62 0 53 15 -7 12 -32 12 -60
0z"/>
<path d="M4495 3760 c-11 -18 5 -30 41 -30 27 0 34 4 34 20 0 16 -7 20 -34 20
-19 0 -38 -4 -41 -10z"/>
<path d="M5692 3570 c-19 -4 -39 -13 -45 -19 -9 -9 -13 -116 -15 -368 l-4
-355 -31 6 c-18 3 -44 9 -58 12 -30 7 -41 -9 -28 -43 6 -17 16 -23 40 -23 17
0 44 -9 59 -20 27 -20 28 -22 30 -132 3 -141 7 -209 17 -273 l8 -50 56 0 c82
0 93 13 84 95 -6 59 -14 89 -46 188 -14 42 -8 47 29 28 35 -18 62 -52 62 -78
0 -45 116 -195 158 -204 15 -3 37 -10 50 -15 16 -6 40 -4 79 7 64 18 138 84
149 131 3 15 12 37 18 48 17 29 42 101 56 168 15 64 8 81 -30 75 -27 -4 -32
-12 -58 -103 -12 -38 -26 -86 -33 -105 -22 -59 -84 -144 -112 -154 -24 -9 -32
-5 -62 24 -32 31 -100 132 -134 198 -7 15 -31 48 -53 75 -55 66 -50 90 18 98
73 9 148 53 227 133 76 78 115 150 143 263 16 68 16 74 -1 138 -36 131 -96
184 -210 185 -52 0 -67 -4 -112 -35 -47 -31 -93 -82 -93 -101 0 -19 -47 -74
-62 -74 -16 0 -17 10 -12 108 3 59 7 116 9 126 10 48 -21 63 -93 46z m384
-155 c78 -78 84 -241 15 -383 -47 -97 -232 -240 -291 -225 -21 6 -22 10 -16
62 3 31 10 99 16 151 10 102 26 151 79 245 35 61 140 175 161 175 6 0 22 -11
36 -25z m-321 -685 c0 -22 -29 -18 -33 3 -3 14 1 18 15 15 10 -2 18 -10 18
-18z"/>
<path d="M4438 3543 c-42 -29 -98 -93 -98 -113 0 -10 -7 -31 -15 -46 -8 -16
-15 -37 -15 -47 0 -9 -4 -25 -9 -35 -9 -16 -28 -161 -38 -297 -5 -69 -9 -75
-54 -82 -37 -6 -104 -37 -114 -53 -4 -6 -1 -18 6 -26 14 -17 58 -11 100 14 48
27 57 13 62 -90 3 -51 10 -122 17 -158 6 -36 12 -77 13 -92 1 -14 5 -30 10
-34 4 -4 7 -16 7 -26 0 -28 37 -105 68 -140 63 -72 200 -101 280 -59 62 33
116 73 195 145 96 86 113 110 98 142 -18 40 -52 31 -95 -26 -21 -28 -57 -65
-80 -82 -22 -18 -50 -41 -61 -51 -46 -42 -126 -88 -143 -82 -31 10 -53 54 -63
128 -15 104 -27 259 -28 355 l-1 83 118 -6 c64 -3 146 -2 182 2 62 8 65 9 68
36 l3 28 -177 -2 c-208 -3 -206 -4 -199 95 3 33 7 131 10 216 3 85 10 159 15
164 6 6 10 22 10 37 0 45 17 49 100 27 41 -12 106 -23 143 -25 l68 -5 -3 29
c-3 24 -8 29 -43 34 -22 4 -53 11 -70 17 -119 41 -227 51 -267 25z m-53 -583
c14 -15 16 -29 12 -65 -7 -44 -25 -85 -39 -85 -14 0 -20 50 -9 64 10 11 8 17
-6 25 -15 8 -16 13 -5 30 6 12 12 28 12 36 0 21 13 19 35 -5z"/>
<path d="M3307 3482 c-40 -45 -63 -144 -95 -407 l-7 -59 -135 3 c-74 1 -136 4
-138 5 -1 2 3 26 9 55 10 49 8 146 -7 296 -4 45 -11 64 -27 77 -31 25 -82 23
-107 -4 -19 -20 -20 -35 -20 -207 -1 -130 -4 -191 -13 -202 -7 -9 -31 -18 -54
-21 -77 -11 -158 -82 -146 -129 9 -33 47 -22 107 31 31 28 61 50 65 50 23 0
26 -36 19 -307 -6 -282 -6 -288 15 -310 24 -27 72 -30 105 -7 20 14 22 23 22
112 0 53 5 126 11 162 6 36 12 126 13 200 l1 135 138 0 138 0 2 -246 c1 -163
6 -251 13 -260 6 -8 14 -31 18 -51 12 -66 61 -149 107 -180 98 -66 193 -10
274 160 20 43 42 90 50 105 8 16 15 39 15 52 0 12 7 28 15 35 8 7 15 20 15 29
0 10 7 26 15 37 21 28 18 49 -9 63 -19 10 -27 10 -43 0 -23 -14 -32 -34 -99
-211 -9 -24 -20 -50 -25 -58 -5 -8 -12 -22 -15 -30 -36 -87 -81 -150 -108
-150 -11 0 -28 28 -61 101 -35 78 -57 387 -33 469 7 25 13 67 13 95 l0 49 40
7 c67 12 95 27 95 49 0 30 -25 35 -70 15 -53 -24 -76 -5 -51 43 5 9 19 71 31
137 12 66 28 136 36 155 7 19 16 52 20 72 7 43 6 44 -72 52 -41 4 -55 1 -67
-12z"/>
<path d="M3877 2499 c-30 -18 -39 -56 -20 -85 13 -20 23 -24 52 -22 35 3 36 4
39 51 3 43 1 48 -23 57 -31 12 -26 12 -48 -1z"/>
<path d="M5143 2500 c-18 -7 -23 -17 -23 -48 0 -46 14 -62 55 -62 54 0 71 63
29 105 -17 17 -29 18 -61 5z"/>
<path d="M6506 2485 c-37 -37 -6 -95 51 -95 66 0 63 102 -3 108 -19 2 -38 -3
-48 -13z"/>
<path d="M4834 1702 c-6 -4 -14 -19 -18 -34 -6 -25 -11 -28 -47 -28 -33 0 -40
-3 -37 -17 2 -12 14 -19 33 -21 l30 -3 -3 -141 c-4 -114 -1 -152 14 -202 24
-83 37 -96 95 -96 45 0 50 3 74 37 14 21 25 44 25 51 0 8 8 36 17 61 15 45 14
81 -4 81 -11 0 -43 -58 -43 -78 0 -9 -10 -38 -22 -64 -25 -54 -52 -63 -62 -22
-10 38 -5 346 6 367 7 14 23 17 98 17 93 0 119 11 84 37 -14 10 -37 12 -91 7
-68 -6 -73 -5 -73 13 0 35 -45 56 -76 35z"/>
<path d="M3644 1610 c-9 -9 -9 -19 -1 -40 9 -24 8 -32 -6 -48 -14 -15 -17 -40
-17 -144 l0 -126 31 -26 c17 -14 39 -26 50 -26 36 0 84 77 96 156 5 34 -14 57
-23 27 -19 -64 -59 -123 -81 -123 -21 0 -16 277 5 302 20 24 11 52 -18 56 -14
2 -30 -2 -36 -8z"/>
<path d="M4281 1611 c-12 -8 -13 -14 -3 -36 11 -23 9 -32 -8 -60 -17 -27 -20
-49 -20 -141 1 -97 3 -112 23 -136 33 -40 70 -46 101 -14 15 14 26 33 26 43 0
10 7 27 15 37 8 11 15 28 15 37 0 10 8 22 18 28 13 7 14 12 5 22 -15 15 -42 5
-50 -18 -22 -65 -50 -113 -65 -113 -26 0 -33 61 -20 165 7 57 8 91 2 93 -16 6
-11 26 10 45 24 20 26 43 4 51 -22 8 -36 7 -53 -3z"/>
<path d="M5453 1609 c-8 -8 -9 -18 -1 -35 8 -18 7 -31 -6 -58 -9 -18 -16 -44
-16 -55 0 -12 -8 -24 -17 -27 -36 -11 -48 -22 -54 -50 -10 -43 -46 -133 -64
-160 -8 -13 -24 -24 -35 -24 -18 0 -20 7 -20 83 0 45 7 107 15 137 21 79 20
127 -4 135 -11 3 -31 3 -46 -1 -18 -4 -32 -1 -45 11 -10 9 -30 15 -46 13 -38
-4 -52 -52 -53 -173 -1 -49 -6 -107 -12 -128 -11 -40 -1 -67 25 -67 12 0 46
201 46 272 0 28 5 38 20 43 44 14 48 -12 28 -152 -10 -69 -10 -92 3 -140 25
-97 87 -119 149 -53 26 28 65 120 72 169 2 14 8 26 15 28 8 3 14 -16 19 -57 7
-63 30 -104 64 -115 26 -8 80 21 80 44 0 10 7 24 15 31 8 7 15 21 15 32 0 10
7 30 16 44 12 18 14 28 6 36 -16 16 -31 1 -63 -68 -30 -63 -51 -79 -63 -48
-10 25 -7 156 4 193 8 28 6 38 -7 53 -16 17 -15 20 6 34 30 21 25 58 -9 62
-14 2 -30 -2 -37 -9z"/>
<path d="M4516 1558 c-8 -18 -17 -62 -20 -98 -7 -64 -25 -132 -52 -198 -19
-46 -18 -72 4 -72 24 0 55 54 47 81 -4 11 0 35 9 53 8 18 18 51 22 74 7 43 29
72 43 56 10 -11 35 -103 30 -108 -2 -1 -21 -12 -41 -25 -64 -38 -61 -119 6
-141 28 -9 40 -8 64 4 42 22 74 80 66 120 -6 34 14 66 41 66 16 0 27 27 14 36
-5 3 -21 -1 -34 -10 -40 -27 -36 -31 -94 95 -22 49 -63 99 -81 99 -6 0 -17
-15 -24 -32z m104 -283 c0 -54 -38 -76 -60 -36 -14 27 -13 34 11 60 16 17 24
20 35 10 8 -6 14 -22 14 -34z"/>
<path d="M3076 1518 c-18 -202 -18 -243 -2 -281 12 -31 20 -38 38 -35 20 3 24
11 29 58 3 30 11 68 17 83 7 16 12 38 12 50 0 36 34 107 51 107 33 0 39 -22
39 -153 l0 -128 28 3 c23 3 28 9 34 43 12 77 34 130 54 130 21 0 32 -29 33
-91 1 -32 7 -44 31 -62 16 -12 33 -22 38 -22 17 0 73 65 79 92 3 15 12 33 19
39 18 15 18 49 1 49 -19 0 -40 -26 -62 -77 -10 -24 -23 -43 -30 -43 -6 0 -18
38 -28 87 -9 47 -22 90 -29 95 -24 14 -49 8 -73 -18 -30 -32 -45 -24 -45 25 0
43 -36 91 -69 91 -11 0 -33 -12 -50 -26 -36 -30 -51 -25 -51 17 0 25 -4 29
-29 29 -29 0 -29 -1 -35 -62z"/>
<path d="M5707 1544 c-41 -42 -52 -85 -45 -188 3 -50 10 -71 31 -99 28 -37 77
-55 114 -42 23 8 125 153 121 173 -6 29 -22 17 -76 -53 -77 -99 -106 -94 -111
22 -1 26 5 35 34 52 34 20 65 70 65 105 0 22 -51 66 -76 66 -11 0 -37 -16 -57
-36z m71 -75 c-4 -44 -34 -48 -31 -5 1 16 5 36 8 45 10 25 27 -4 23 -40z"/>
<path d="M5997 1573 c-4 -3 -7 -22 -7 -42 -1 -20 -7 -54 -15 -76 -8 -22 -15
-54 -15 -71 0 -18 -7 -45 -15 -60 -8 -16 -15 -38 -15 -50 0 -11 -7 -29 -15
-40 -23 -30 -18 -44 15 -44 26 0 30 4 31 28 0 15 4 36 8 47 7 17 10 14 20 -20
7 -28 20 -45 42 -57 40 -24 48 -23 97 9 41 27 42 29 42 84 0 59 15 83 54 90
26 5 44 35 29 50 -8 8 -23 4 -57 -16 -43 -25 -46 -26 -52 -8 -11 33 -68 148
-83 166 -14 17 -52 23 -64 10z m68 -159 l19 -56 -40 -34 c-21 -18 -42 -33 -46
-34 -20 -1 -8 71 27 168 9 24 21 11 40 -44z m35 -125 c9 -16 8 -26 -5 -45 -19
-29 -41 -31 -55 -5 -13 26 6 71 31 71 10 0 23 -9 29 -21z"/>
<path d="M3853 1532 c-15 -25 -18 -51 -17 -175 1 -80 5 -150 8 -156 9 -15 49
-14 64 1 7 7 12 22 12 34 0 59 47 201 78 237 36 41 42 23 42 -116 0 -117 2
-136 18 -150 27 -24 65 -21 95 8 28 28 71 133 65 161 -6 32 -24 25 -42 -18
-39 -95 -57 -129 -66 -123 -6 4 -10 61 -10 134 0 115 -2 131 -21 155 -11 14
-31 26 -43 26 -26 0 -70 -43 -85 -82 -17 -44 -30 -33 -33 30 -3 50 -6 57 -25
60 -16 2 -28 -5 -40 -26z"/>
<path d="M386 792 c-3 -5 -1 -24 6 -42 7 -22 9 -80 5 -172 l-5 -139 46 3 c44
3 47 5 43 28 -2 14 -5 41 -5 60 l-1 35 69 3 c46 2 72 -1 77 -9 4 -7 5 -37 2
-66 l-6 -54 44 3 c42 3 44 4 42 33 -2 37 -2 249 0 290 2 28 -1 30 -37 33 -21
2 -42 0 -46 -5 -5 -4 -4 -37 2 -72 13 -84 5 -91 -82 -83 l-65 7 1 45 c1 25 3
59 5 75 4 29 3 30 -43 33 -25 2 -49 -1 -52 -6z"/>
<path d="M770 798 c0 -2 -1 -82 -1 -178 l-1 -175 42 0 43 0 1 172 c1 136 -2
174 -12 178 -14 5 -72 7 -72 3z"/>
<path d="M902 791 c-10 -6 -1 -16 32 -35 25 -15 46 -31 46 -36 0 -13 37 -13
45 0 4 6 1 26 -5 45 -11 33 -14 35 -58 35 -26 0 -53 -4 -60 -9z"/>
<path d="M1213 783 c-30 -21 -29 -38 6 -82 34 -42 49 -90 33 -100 -6 -4 -29
-5 -52 -3 -31 3 -40 8 -40 23 0 24 -19 25 -26 2 -3 -10 -12 -31 -20 -46 -7
-16 -14 -36 -14 -44 0 -9 -7 -21 -15 -27 -8 -6 -16 -22 -17 -36 -3 -22 1 -25
27 -25 28 0 30 2 30 40 l0 40 90 0 90 0 0 -40 0 -40 48 -3 c43 -3 47 -1 47 20
0 13 -12 48 -28 78 -15 30 -43 101 -62 158 -37 110 -48 120 -97 85z"/>
<path d="M1467 794 c-4 -4 -7 -75 -7 -158 0 -83 -4 -158 -10 -166 -12 -19 5
-30 45 -30 53 0 54 3 56 185 l1 170 -39 3 c-21 2 -42 0 -46 -4z"/>
<path d="M1759 793 c-1 -5 -2 -73 -3 -153 -2 -80 -4 -156 -7 -170 -3 -20 1
-26 20 -28 12 -2 33 -1 45 2 20 5 21 10 21 173 0 103 -4 171 -10 175 -13 10
-65 10 -66 1z"/>
<path d="M1891 791 c-11 -7 -7 -13 18 -26 18 -9 41 -25 52 -36 30 -30 52 -17
44 23 -4 18 -9 36 -12 41 -6 10 -85 9 -102 -2z"/>
<path d="M2059 635 c-1 -91 -2 -171 -3 -177 -1 -15 73 -23 113 -13 l26 7 -25
18 c-25 19 -25 21 -25 169 0 164 1 160 -62 161 -23 0 -23 -1 -24 -165z"/>
<path d="M2185 791 c-3 -5 14 -24 38 -41 49 -35 69 -79 69 -151 0 -37 -6 -57
-26 -83 -34 -45 -33 -58 2 -50 33 7 88 67 103 112 15 47 3 116 -28 152 -42 50
-141 88 -158 61z"/>
<path d="M2630 793 c-1 -5 -2 -75 -4 -158 -1 -82 -4 -159 -7 -170 -4 -18 1
-20 45 -20 l50 0 -1 168 c0 134 -3 171 -14 178 -17 11 -69 12 -69 2z"/>
<path d="M2766 791 c-3 -5 12 -20 34 -35 22 -14 40 -31 40 -36 0 -6 7 -10 15
-10 16 0 21 43 9 74 -7 17 -88 23 -98 7z"/>
<path d="M2916 791 c-3 -5 1 -25 9 -45 8 -19 15 -46 15 -60 0 -17 6 -26 21
-28 14 -2 28 -19 43 -56 12 -29 28 -58 34 -64 7 -7 12 -21 12 -33 0 -50 54
-62 64 -14 11 56 7 84 -14 97 -11 7 -20 18 -20 26 0 7 -7 19 -15 26 -8 7 -15
23 -15 35 0 12 -7 28 -15 35 -8 7 -15 18 -15 25 0 27 -41 65 -70 65 -16 0 -31
-4 -34 -9z"/>
<path d="M3211 786 c-7 -9 -12 -38 -10 -73 1 -32 1 -106 1 -165 l-2 -106 45 0
45 0 -2 176 -3 177 -31 3 c-18 2 -36 -3 -43 -12z"/>
<path d="M3360 798 c-1 -2 -1 -82 -2 -178 l-2 -175 33 -3 c45 -5 55 9 52 68
-2 44 0 51 21 59 l23 8 -22 7 c-21 7 -23 14 -25 109 l-3 102 -37 3 c-21 2 -38
2 -38 0z"/>
<path d="M3490 790 c-8 -5 -10 -10 -4 -10 6 0 25 -13 42 -28 28 -25 32 -35 32
-80 0 -28 -4 -54 -10 -57 -15 -9 -12 -22 8 -30 12 -5 26 4 50 31 49 57 40 122
-24 165 -31 20 -70 24 -94 9z"/>
<path d="M3755 782 c-40 -21 -63 -50 -71 -92 -4 -19 -11 -43 -16 -53 -18 -36
41 -167 76 -167 8 0 19 -7 26 -15 13 -16 85 -21 94 -7 3 5 -16 24 -42 44 -83
62 -104 169 -47 244 33 43 70 45 112 7 50 -47 63 -77 63 -146 0 -58 -3 -67
-34 -102 -55 -61 -28 -76 43 -24 56 40 85 104 76 162 -19 110 -85 168 -190
166 -33 -1 -73 -8 -90 -17z"/>
<path d="M4064 786 c-5 -13 11 -58 47 -128 5 -9 23 -60 41 -114 17 -53 38 -98
45 -101 18 -7 63 35 63 58 0 10 -7 22 -16 27 -18 10 -73 157 -82 222 -7 45 -7
45 -50 48 -31 2 -44 -1 -48 -12z"/>
<path d="M4246 792 c-7 -11 6 -57 28 -97 9 -16 16 -36 16 -43 0 -7 11 -37 24
-65 14 -29 30 -71 36 -95 6 -24 18 -46 26 -49 23 -9 61 36 69 82 6 36 5 38 -8
21 -18 -24 -37 -13 -37 23 0 15 -7 36 -15 47 -8 10 -15 28 -15 40 0 11 -5 25
-12 32 -7 7 -15 33 -18 60 l-5 47 -42 3 c-22 2 -44 -1 -47 -6z"/>
<path d="M4496 785 c-3 -9 -6 -38 -6 -65 0 -30 -5 -52 -15 -60 -16 -13 -21
-90 -6 -90 5 0 12 18 16 39 4 22 13 42 21 45 8 3 14 18 14 32 0 15 7 35 15 44
8 9 16 27 17 41 2 19 -2 25 -23 27 -17 2 -29 -3 -33 -13z"/>
<path d="M4616 792 c-7 -11 -10 -341 -3 -348 3 -3 24 -3 46 1 l39 6 1 169 0
168 -31 6 c-40 8 -46 8 -52 -2z"/>
<path d="M4756 792 c-8 -13 82 -85 99 -79 11 5 11 12 0 44 -12 35 -17 38 -53
41 -22 2 -43 -1 -46 -6z"/>
<path d="M4925 790 c-4 -6 -7 -86 -7 -178 l0 -167 34 -1 c18 0 38 1 43 3 15 5
8 335 -8 345 -17 11 -55 10 -62 -2z"/>
<path d="M5050 790 c-12 -7 -10 -11 10 -19 14 -6 33 -17 43 -25 22 -17 33 -81
19 -117 -9 -22 -15 -25 -46 -21 -20 2 -36 0 -36 -6 0 -5 16 -32 35 -58 19 -27
39 -58 44 -70 14 -32 101 -43 101 -13 0 9 -70 92 -82 97 -18 8 -6 42 23 62 44
32 54 66 34 111 -24 53 -103 86 -145 59z"/>
<path d="M5270 798 c-1 -2 -2 -81 -3 -176 l-2 -172 49 0 c48 0 48 0 40 28 -5
15 -8 91 -7 168 3 139 2 142 -20 148 -22 6 -57 8 -57 4z"/>
<path d="M5400 791 c-12 -8 -11 -11 5 -17 11 -4 36 -20 56 -36 20 -15 40 -28
44 -28 3 0 5 19 3 43 l-3 42 -45 3 c-25 1 -52 -2 -60 -7z"/>
<path d="M5575 794 c-6 -2 -9 -69 -8 -177 l1 -172 88 2 c48 1 92 7 98 13 5 5
19 10 30 10 25 0 72 53 87 98 19 58 7 128 -29 165 -49 50 -94 71 -138 63 -36
-7 -36 -8 -13 -20 84 -44 109 -82 109 -170 0 -39 -7 -62 -27 -93 -30 -47 -55
-58 -93 -40 -24 12 -25 16 -30 122 -3 61 -3 127 1 148 6 34 4 39 -18 48 -25 9
-41 10 -58 3z"/>
<path d="M6055 792 c-6 -4 -10 -74 -10 -174 l0 -168 40 0 40 0 0 169 c0 161
-1 170 -20 175 -27 8 -38 7 -50 -2z"/>
<path d="M6182 793 c-9 -3 -4 -11 17 -24 48 -29 64 -60 56 -112 -6 -41 -10
-46 -41 -51 -47 -9 -50 -21 -15 -65 17 -21 31 -43 31 -48 0 -6 9 -18 21 -28
24 -23 99 -30 99 -10 0 8 -5 17 -10 20 -19 12 -90 106 -90 120 0 7 11 16 25
19 25 6 55 51 55 81 0 60 -92 121 -148 98z"/>
<path d="M6386 792 c-3 -6 -2 -33 4 -61 5 -28 8 -70 5 -94 -2 -23 -7 -77 -10
-120 l-5 -78 43 3 42 3 5 170 c3 94 5 171 5 171 0 8 -84 13 -89 6z"/>
<path d="M6525 790 c-17 -7 -17 -9 -3 -9 10 -1 33 -14 51 -31 45 -39 70 -40
61 -2 -4 15 -11 33 -17 40 -11 14 -62 15 -92 2z"/>
<path d="M6760 790 c-44 -11 -80 -52 -80 -92 0 -36 55 -94 98 -104 46 -11 102
-44 102 -59 0 -8 -5 -26 -12 -40 -14 -31 -5 -41 25 -28 14 7 28 27 37 53 23
68 -5 99 -133 147 -49 19 -62 38 -55 84 3 21 8 24 43 23 32 -1 45 -8 71 -39
37 -45 64 -43 64 4 0 52 -67 73 -160 51z"/>
<path d="M6972 788 c-11 -14 -15 -39 -13 -73 1 -17 8 -13 42 23 22 23 46 42
52 42 7 0 6 4 -3 10 -21 14 -66 12 -78 -2z"/>
<path d="M7195 789 c-4 -6 -3 -14 2 -18 6 -3 15 -16 22 -29 8 -16 20 -22 34
-20 18 2 22 10 22 38 0 33 -2 35 -37 38 -20 2 -39 -2 -43 -9z"/>
<path d="M7420 790 c-52 -12 -106 -77 -114 -138 -10 -76 1 -109 56 -163 41
-41 55 -49 86 -49 20 0 44 5 52 10 9 6 10 10 3 10 -22 0 -86 64 -104 105 -29
63 -25 124 11 174 27 36 34 40 58 35 43 -11 77 -42 102 -91 19 -38 21 -55 16
-101 -4 -31 -13 -63 -20 -72 -42 -49 -20 -73 31 -35 41 32 73 95 72 145 0 52
-38 120 -84 152 -42 29 -93 35 -165 18z"/>
<path d="M7860 790 c-18 -6 -20 -8 -7 -9 10 -1 31 -16 48 -33 22 -25 29 -42
29 -74 0 -39 -21 -74 -46 -74 -5 0 -15 -4 -22 -9 -11 -7 -6 -21 25 -67 46 -72
49 -74 96 -74 34 0 37 2 27 19 -5 11 -24 35 -40 53 -47 51 -48 67 -6 101 29
23 36 36 36 64 0 44 -14 69 -48 87 -41 20 -64 25 -92 16z"/>
<path d="M8218 793 c-15 -4 -12 -9 15 -31 17 -15 36 -32 40 -39 12 -19 25 -16
32 7 4 13 0 31 -9 45 -16 24 -37 29 -78 18z"/>
<path d="M8505 791 c-3 -5 10 -22 29 -38 19 -15 42 -42 50 -58 22 -42 20 -122
-4 -170 -25 -48 -25 -55 -2 -55 22 0 78 59 92 96 25 65 3 143 -51 187 -19 15
-39 32 -46 37 -15 13 -60 13 -68 1z"/>
<path d="M7073 633 c0 -87 -1 -165 -4 -173 -3 -12 6 -15 41 -15 l45 0 -2 170
-2 170 -39 3 -40 3 1 -158z"/>
<path d="M7725 614 l0 -176 40 7 c21 3 41 7 42 9 2 2 -1 15 -7 30 -12 34 -13
86 0 106 5 9 5 19 -2 27 -7 9 -9 41 -4 93 l6 80 -37 0 -38 0 0 -176z"/>
<path d="M8064 638 c0 -84 -2 -162 -5 -173 -3 -17 1 -20 25 -18 57 4 56 0 56
178 l0 165 -37 0 -38 0 -1 -152z"/>
<path d="M8366 758 c6 -30 8 -236 2 -283 -3 -19 3 -20 87 -21 50 0 71 1 48 3
-53 5 -52 4 -56 188 l-2 140 -43 3 -44 3 8 -33z"/>
<path d="M937 654 c-34 -18 -34 -37 -1 -63 34 -26 44 -19 44 29 0 47 -7 52
-43 34z"/>
<path d="M2791 650 l-35 -18 32 -31 c17 -18 36 -30 42 -26 12 7 14 82 2 88 -4
3 -23 -3 -41 -13z"/>
<path d="M6555 650 c-15 -17 -16 -24 -6 -46 22 -50 61 -15 47 42 -8 29 -17 30
-41 4z"/>
<path d="M8227 654 c-34 -18 -34 -27 0 -58 33 -31 43 -26 43 24 0 47 -7 52
-43 34z"/>
<path d="M1921 651 c-14 -4 -26 -11 -28 -17 -6 -17 20 -43 50 -50 28 -6 28 -6
25 31 -3 41 -10 47 -47 36z"/>
<path d="M4773 650 c-29 -12 -29 -34 -1 -54 37 -26 48 -20 48 24 0 42 -7 46
-47 30z"/>
<path d="M5423 650 c-13 -5 -23 -14 -23 -19 0 -13 62 -61 72 -55 4 3 8 23 8
45 0 42 -11 47 -57 29z"/>
<path d="M2931 527 c-6 -37 -9 -72 -6 -77 4 -6 18 -10 32 -10 21 0 24 4 20 23
-3 12 -12 47 -20 77 l-14 55 -12 -68z"/>
<path d="M992 523 c-18 -16 -44 -36 -58 -47 -34 -24 -19 -38 36 -34 41 3 44 5
59 45 21 58 6 73 -37 36z"/>
<path d="M6697 539 c-29 -17 -21 -57 16 -79 32 -20 87 -27 87 -12 0 5 -19 29
-43 54 -34 37 -46 44 -60 37z"/>
<path d="M2822 503 c-28 -21 -50 -42 -48 -48 1 -5 22 -11 47 -13 43 -2 45 -1
62 38 17 37 16 60 -2 60 -4 0 -30 -17 -59 -37z"/>
<path d="M4830 515 c-19 -12 -48 -30 -64 -40 -36 -21 -21 -35 40 -35 38 0 43
3 58 34 29 61 18 74 -34 41z"/>
<path d="M6605 520 c-10 -11 -34 -30 -53 -42 -39 -24 -29 -38 28 -38 48 0 58
9 62 54 4 45 -11 55 -37 26z"/>
<path d="M1670 520 c0 -6 -8 -13 -17 -17 -26 -9 -53 -34 -53 -50 0 -17 89 -18
94 0 2 6 8 27 14 45 10 30 9 32 -14 32 -13 0 -24 -5 -24 -10z"/>
<path d="M1945 499 c-22 -17 -40 -36 -40 -42 0 -7 18 -13 43 -15 40 -3 43 -1
58 33 26 62 2 71 -61 24z"/>
<path d="M2411 508 c-12 -32 7 -68 35 -68 28 0 48 33 40 66 -9 33 -63 35 -75
2z"/>
<path d="M5463 500 c-18 -17 -39 -30 -47 -30 -29 0 -25 -18 5 -24 73 -14 88
-7 103 57 9 38 -19 36 -61 -3z"/>
<path d="M5917 512 c-23 -25 -21 -34 10 -56 34 -25 58 -11 58 35 0 29 -4 34
-26 37 -15 2 -32 -5 -42 -16z"/>
<path d="M8262 500 c-23 -16 -47 -30 -53 -30 -6 0 -9 -6 -7 -12 3 -8 23 -13
48 -14 39 0 44 2 56 33 26 62 17 67 -44 23z"/>
<path d="M8733 524 c-7 -3 -13 -23 -13 -45 0 -35 3 -39 24 -39 32 0 57 35 47
64 -8 21 -34 30 -58 20z"/>
</g>
</svg>
